<svg width="69" height="20" viewBox="0 0 69 20" fill="none" xmlns="http://www.w3.org/2000/svg">
<path d="M6.996 18.22C5.61733 18.22 4.41467 17.9927 3.388 17.538C2.376 17.0687 1.50333 16.3867 0.77 15.492L2.486 12.94C3.278 13.8493 4.04067 14.4873 4.774 14.854C5.522 15.2207 6.32867 15.404 7.194 15.404C7.64867 15.404 8.052 15.338 8.404 15.206C8.77067 15.074 9.05667 14.898 9.262 14.678C9.46733 14.4433 9.57 14.1647 9.57 13.842C9.57 13.6073 9.51867 13.3947 9.416 13.204C9.31333 12.9987 9.16667 12.8227 8.976 12.676C8.78533 12.5147 8.558 12.3753 8.294 12.258C8.03 12.126 7.73667 12.016 7.414 11.928C7.09133 11.8253 6.73933 11.7447 6.358 11.686C5.258 11.4513 4.34133 11.1213 3.608 10.696C2.87467 10.2707 2.332 9.74267 1.98 9.112C1.628 8.48133 1.452 7.73333 1.452 6.868C1.452 6.208 1.59867 5.59933 1.892 5.042C2.18533 4.47 2.58867 3.97867 3.102 3.568C3.63 3.15733 4.23133 2.842 4.906 2.622C5.59533 2.402 6.32133 2.292 7.084 2.292C8.316 2.292 9.40133 2.49733 10.34 2.908C11.2933 3.304 12.1147 3.92 12.804 4.756L11.22 7.044C10.6773 6.41333 10.054 5.93667 9.35 5.614C8.66067 5.29133 7.92733 5.13 7.15 5.13C6.666 5.13 6.248 5.196 5.896 5.328C5.544 5.44533 5.26533 5.62867 5.06 5.878C4.86933 6.11267 4.774 6.39133 4.774 6.714C4.774 6.978 4.84 7.21267 4.972 7.418C5.104 7.62333 5.29467 7.80667 5.544 7.968C5.79333 8.11467 6.094 8.24667 6.446 8.364C6.798 8.48133 7.18667 8.584 7.612 8.672C8.41867 8.83333 9.14467 9.046 9.79 9.31C10.4353 9.574 10.9853 9.89667 11.44 10.278C11.9093 10.6447 12.2687 11.0847 12.518 11.598C12.7673 12.0967 12.892 12.6613 12.892 13.292C12.892 14.3333 12.6427 15.2207 12.144 15.954C11.6453 16.6873 10.956 17.252 10.076 17.648C9.196 18.0293 8.16933 18.22 6.996 18.22ZM5.676 20.002L5.852 9.838L7.722 10.564L7.898 20.002H5.676ZM8.382 10.586L6.512 9.86L6.336 0.708H8.558L8.382 10.586ZM18.5649 16.922V4.426L19.3789 5.9L16.1669 7.462L15.5289 4.536L19.8189 2.38H21.8209V16.922H18.5649ZM15.8589 18V15.03H24.5929V18H15.8589ZM31.8307 18.154C30.7161 18.154 29.7041 17.9267 28.7947 17.472C27.9001 17.0027 27.1521 16.328 26.5507 15.448L28.3327 13.468C28.9634 14.172 29.5354 14.6487 30.0487 14.898C30.5621 15.1473 31.1267 15.272 31.7427 15.272C32.2561 15.272 32.7181 15.1693 33.1287 14.964C33.5394 14.744 33.8621 14.4433 34.0967 14.062C34.3314 13.6807 34.4487 13.2553 34.4487 12.786C34.4487 12.302 34.3314 11.8693 34.0967 11.488C33.8621 11.1067 33.5467 10.806 33.1507 10.586C32.7694 10.3513 32.3294 10.234 31.8307 10.234C31.5081 10.234 31.2074 10.2633 30.9287 10.322C30.6501 10.366 30.3421 10.4613 30.0047 10.608C29.6674 10.74 29.2567 10.938 28.7727 11.202L27.2767 9.222L28.2227 2.512H36.8907V5.35H29.8947L30.7087 4.382L29.9827 9.266L28.9267 8.76C29.1467 8.55467 29.4474 8.364 29.8287 8.188C30.2247 7.99733 30.6501 7.85067 31.1047 7.748C31.5741 7.63067 32.0287 7.572 32.4687 7.572C33.4367 7.572 34.2947 7.792 35.0427 8.232C35.8054 8.672 36.4067 9.288 36.8467 10.08C37.3014 10.8573 37.5287 11.752 37.5287 12.764C37.5287 13.776 37.2794 14.6927 36.7807 15.514C36.2821 16.3207 35.6001 16.966 34.7347 17.45C33.8694 17.9193 32.9014 18.154 31.8307 18.154ZM41.4428 18.242C40.8708 18.242 40.4308 18.0807 40.1228 17.758C39.8148 17.4353 39.6608 16.9733 39.6608 16.372C39.6608 15.8293 39.8222 15.3893 40.1448 15.052C40.4822 14.7 40.9148 14.524 41.4428 14.524C42.0002 14.524 42.4328 14.6853 42.7408 15.008C43.0488 15.3307 43.2028 15.7853 43.2028 16.372C43.2028 16.9293 43.0415 17.384 42.7188 17.736C42.3962 18.0733 41.9708 18.242 41.4428 18.242ZM50.1784 18.154C49.0637 18.154 48.0517 17.9267 47.1424 17.472C46.2477 17.0027 45.4997 16.328 44.8984 15.448L46.6804 13.468C47.3111 14.172 47.8831 14.6487 48.3964 14.898C48.9097 15.1473 49.4744 15.272 50.0904 15.272C50.6037 15.272 51.0657 15.1693 51.4764 14.964C51.8871 14.744 52.2097 14.4433 52.4444 14.062C52.6791 13.6807 52.7964 13.2553 52.7964 12.786C52.7964 12.302 52.6791 11.8693 52.4444 11.488C52.2097 11.1067 51.8944 10.806 51.4984 10.586C51.1171 10.3513 50.6771 10.234 50.1784 10.234C49.8557 10.234 49.5551 10.2633 49.2764 10.322C48.9977 10.366 48.6897 10.4613 48.3524 10.608C48.0151 10.74 47.6044 10.938 47.1204 11.202L45.6244 9.222L46.5704 2.512H55.2384V5.35H48.2424L49.0564 4.382L48.3304 9.266L47.2744 8.76C47.4944 8.55467 47.7951 8.364 48.1764 8.188C48.5724 7.99733 48.9977 7.85067 49.4524 7.748C49.9217 7.63067 50.3764 7.572 50.8164 7.572C51.7844 7.572 52.6424 7.792 53.3904 8.232C54.1531 8.672 54.7544 9.288 55.1944 10.08C55.6491 10.8573 55.8764 11.752 55.8764 12.764C55.8764 13.776 55.6271 14.6927 55.1284 15.514C54.6297 16.3207 53.9477 16.966 53.0824 17.45C52.2171 17.9193 51.2491 18.154 50.1784 18.154ZM63.4425 18C62.6652 18 61.9318 17.8607 61.2425 17.582C60.5678 17.3033 59.9738 16.9147 59.4605 16.416C58.9618 15.9027 58.5658 15.316 58.2725 14.656C57.9938 13.9813 57.8545 13.2553 57.8545 12.478C57.8545 11.9793 57.9058 11.4807 58.0085 10.982C58.1258 10.4833 58.2945 9.96267 58.5145 9.42C58.7345 8.87733 58.9985 8.32 59.3065 7.748C59.6145 7.16133 59.9592 6.54533 60.3405 5.9L62.4525 2.358H65.5325L65.6205 2.578L62.8265 7.088C62.4305 7.73333 62.0785 8.34933 61.7705 8.936C61.4772 9.52267 61.2132 10.0873 60.9785 10.63C60.7585 11.1727 60.5532 11.7227 60.3625 12.28L59.7245 10.52C59.9152 10.0213 60.1718 9.574 60.4945 9.178C60.8172 8.76733 61.1838 8.42267 61.5945 8.144C62.0052 7.85067 62.4378 7.63067 62.8925 7.484C63.3472 7.32267 63.7945 7.242 64.2345 7.242C65.0998 7.242 65.8918 7.47667 66.6105 7.946C67.3438 8.40067 67.9232 9.00933 68.3485 9.772C68.7885 10.5347 69.0085 11.3707 69.0085 12.28C69.0085 13.38 68.7665 14.3627 68.2825 15.228C67.8132 16.0787 67.1605 16.7533 66.3245 17.252C65.4885 17.7507 64.5278 18 63.4425 18ZM63.4865 15.206C63.9852 15.206 64.4252 15.096 64.8065 14.876C65.2025 14.6413 65.5105 14.3187 65.7305 13.908C65.9505 13.4973 66.0605 13.028 66.0605 12.5C66.0605 12.0453 65.9432 11.62 65.7085 11.224C65.4885 10.8133 65.1878 10.4833 64.8065 10.234C64.4252 9.98467 63.9925 9.86 63.5085 9.86C62.9952 9.86 62.5332 9.98467 62.1225 10.234C61.7265 10.4687 61.4112 10.784 61.1765 11.18C60.9565 11.576 60.8465 12.0087 60.8465 12.478C60.8465 13.006 60.9565 13.4753 61.1765 13.886C61.4112 14.282 61.7265 14.6047 62.1225 14.854C62.5185 15.0887 62.9732 15.206 63.4865 15.206Z" fill="#70737C"/>
</svg>
