<svg width="47" height="15" viewBox="0 0 47 15" fill="none" xmlns="http://www.w3.org/2000/svg">
<path d="M5.056 13.16C4.096 13.16 3.25333 12.984 2.528 12.632C1.80267 12.28 1.184 11.7627 0.672 11.08L1.904 9.464C2.448 10.168 2.976 10.6587 3.488 10.936C4 11.2133 4.576 11.352 5.216 11.352C5.57867 11.352 5.90933 11.2987 6.208 11.192C6.50667 11.0747 6.74133 10.92 6.912 10.728C7.08267 10.5253 7.168 10.296 7.168 10.04C7.168 9.85867 7.13067 9.69333 7.056 9.544C6.992 9.384 6.89067 9.24533 6.752 9.128C6.61333 9 6.44267 8.88267 6.24 8.776C6.03733 8.66933 5.808 8.57867 5.552 8.504C5.296 8.42933 5.01333 8.36 4.704 8.296C3.91467 8.136 3.25867 7.90667 2.736 7.608C2.224 7.29867 1.84 6.91467 1.584 6.456C1.328 5.99733 1.2 5.45867 1.2 4.84C1.2 4.37067 1.30133 3.93867 1.504 3.544C1.71733 3.14933 2.00533 2.808 2.368 2.52C2.73067 2.232 3.152 2.008 3.632 1.848C4.112 1.688 4.62933 1.608 5.184 1.608C6.05867 1.608 6.832 1.768 7.504 2.088C8.176 2.39733 8.73067 2.86133 9.168 3.48L7.984 4.92C7.62133 4.42933 7.2 4.06133 6.72 3.816C6.25067 3.56 5.73867 3.432 5.184 3.432C4.8 3.432 4.464 3.48533 4.176 3.592C3.89867 3.69867 3.68 3.85333 3.52 4.056C3.36 4.248 3.28 4.48267 3.28 4.76C3.28 4.97333 3.328 5.16533 3.424 5.336C3.52 5.496 3.65333 5.64 3.824 5.768C4.00533 5.896 4.23467 6.008 4.512 6.104C4.78933 6.2 5.104 6.28533 5.456 6.36C6.04267 6.47733 6.57067 6.63733 7.04 6.84C7.50933 7.032 7.90933 7.26667 8.24 7.544C8.57067 7.81067 8.82133 8.12 8.992 8.472C9.16267 8.81333 9.248 9.19733 9.248 9.624C9.248 10.36 9.072 10.9947 8.72 11.528C8.37867 12.0507 7.89333 12.456 7.264 12.744C6.63467 13.0213 5.89867 13.16 5.056 13.16ZM4.096 14.456L4.16 7.128L5.616 7.656L5.68 14.456H4.096ZM6.176 7.656L4.72 7.128L4.656 0.455999H6.24L6.176 7.656ZM12.9269 12.216V3.128L13.5189 3.896L11.2469 5.048L10.7829 3.224L13.8389 1.64H14.9909V12.216H12.9269ZM11.0549 13V11.08H16.9109V13H11.0549ZM21.5422 13.112C20.7636 13.112 20.0596 12.9467 19.4302 12.616C18.8009 12.2747 18.2782 11.784 17.8622 11.144L19.0142 9.896C19.4836 10.4187 19.9049 10.7813 20.2782 10.984C20.6516 11.176 21.0622 11.272 21.5102 11.272C21.9156 11.272 22.2782 11.1867 22.5982 11.016C22.9182 10.8347 23.1742 10.5947 23.3662 10.296C23.5582 9.98667 23.6542 9.65067 23.6542 9.288C23.6542 8.89333 23.5636 8.54667 23.3822 8.248C23.2009 7.93867 22.9556 7.69333 22.6462 7.512C22.3369 7.33067 21.9849 7.24 21.5902 7.24C21.3769 7.24 21.1742 7.256 20.9822 7.288C20.7902 7.32 20.5662 7.384 20.3102 7.48C20.0649 7.576 19.7502 7.72533 19.3662 7.928L18.3742 6.584L19.0302 1.768H25.2222V3.608H20.1982L20.6622 3.096L20.1342 6.648L19.5422 6.232C19.6809 6.104 19.8836 5.98133 20.1502 5.864C20.4276 5.74667 20.7262 5.65067 21.0462 5.576C21.3662 5.50133 21.6809 5.464 21.9902 5.464C22.6836 5.464 23.3022 5.624 23.8462 5.944C24.3902 6.264 24.8222 6.70667 25.1422 7.272C25.4622 7.82667 25.6222 8.46667 25.6222 9.192C25.6222 9.928 25.4409 10.5947 25.0782 11.192C24.7262 11.7787 24.2409 12.248 23.6222 12.6C23.0036 12.9413 22.3102 13.112 21.5422 13.112ZM27.8802 13.176C27.4962 13.176 27.1976 13.064 26.9842 12.84C26.7816 12.616 26.6802 12.3013 26.6802 11.896C26.6802 11.5227 26.7869 11.2187 27.0002 10.984C27.2242 10.7387 27.5176 10.616 27.8802 10.616C28.2642 10.616 28.5576 10.728 28.7602 10.952C28.9736 11.1653 29.0802 11.48 29.0802 11.896C29.0802 12.2693 28.9682 12.5787 28.7442 12.824C28.5309 13.0587 28.2429 13.176 27.8802 13.176ZM33.4848 13.112C32.7061 13.112 32.0021 12.9467 31.3728 12.616C30.7434 12.2747 30.2208 11.784 29.8048 11.144L30.9568 9.896C31.4261 10.4187 31.8474 10.7813 32.2208 10.984C32.5941 11.176 33.0048 11.272 33.4528 11.272C33.8581 11.272 34.2208 11.1867 34.5408 11.016C34.8608 10.8347 35.1168 10.5947 35.3088 10.296C35.5008 9.98667 35.5968 9.65067 35.5968 9.288C35.5968 8.89333 35.5061 8.54667 35.3248 8.248C35.1434 7.93867 34.8981 7.69333 34.5888 7.512C34.2794 7.33067 33.9274 7.24 33.5328 7.24C33.3194 7.24 33.1168 7.256 32.9248 7.288C32.7328 7.32 32.5088 7.384 32.2528 7.48C32.0074 7.576 31.6928 7.72533 31.3088 7.928L30.3168 6.584L30.9728 1.768H37.1648V3.608H32.1408L32.6048 3.096L32.0768 6.648L31.4848 6.232C31.6234 6.104 31.8261 5.98133 32.0928 5.864C32.3701 5.74667 32.6688 5.65067 32.9888 5.576C33.3088 5.50133 33.6234 5.464 33.9328 5.464C34.6261 5.464 35.2448 5.624 35.7888 5.944C36.3328 6.264 36.7648 6.70667 37.0848 7.272C37.4048 7.82667 37.5648 8.46667 37.5648 9.192C37.5648 9.928 37.3834 10.5947 37.0208 11.192C36.6688 11.7787 36.1834 12.248 35.5648 12.6C34.9461 12.9413 34.2528 13.112 33.4848 13.112ZM42.5108 13C41.9454 13 41.4174 12.8987 40.9268 12.696C40.4468 12.4933 40.0254 12.216 39.6628 11.864C39.3108 11.5013 39.0334 11.08 38.8308 10.6C38.6281 10.12 38.5268 9.592 38.5268 9.016C38.5268 8.696 38.5641 8.35467 38.6388 7.992C38.7241 7.62933 38.8468 7.24533 39.0068 6.84C39.1774 6.424 39.3748 5.992 39.5988 5.544C39.8228 5.096 40.0841 4.62667 40.3828 4.136L41.8708 1.608H43.8548L43.9188 1.768L42.0148 4.904C41.7054 5.416 41.4334 5.90133 41.1988 6.36C40.9641 6.808 40.7614 7.24 40.5908 7.656C40.4308 8.06133 40.2974 8.456 40.1908 8.84L39.7588 7.384C39.9188 7.04267 40.1161 6.73333 40.3508 6.456C40.5854 6.17867 40.8468 5.944 41.1348 5.752C41.4228 5.56 41.7214 5.416 42.0308 5.32C42.3508 5.224 42.6761 5.176 43.0068 5.176C43.6254 5.176 44.1961 5.34667 44.7188 5.688C45.2414 6.01867 45.6574 6.46133 45.9668 7.016C46.2868 7.57067 46.4468 8.17867 46.4468 8.84C46.4468 9.64 46.2761 10.3547 45.9348 10.984C45.6041 11.6027 45.1401 12.0933 44.5428 12.456C43.9454 12.8187 43.2681 13 42.5108 13ZM42.5268 11.176C42.9108 11.176 43.2521 11.0853 43.5508 10.904C43.8601 10.7227 44.1001 10.472 44.2708 10.152C44.4414 9.82133 44.5268 9.44267 44.5268 9.016C44.5268 8.65333 44.4361 8.31733 44.2548 8.008C44.0841 7.688 43.8494 7.432 43.5508 7.24C43.2521 7.03733 42.9161 6.936 42.5428 6.936C42.1374 6.936 41.7748 7.032 41.4548 7.224C41.1454 7.40533 40.9001 7.656 40.7188 7.976C40.5481 8.28533 40.4628 8.632 40.4628 9.016C40.4628 9.42133 40.5481 9.78933 40.7188 10.12C40.9001 10.44 41.1454 10.696 41.4548 10.888C41.7641 11.08 42.1214 11.176 42.5268 11.176Z" fill="#70737C"/>
</svg>
