<svg width="32" height="13" viewBox="0 0 32 13" fill="none" xmlns="http://www.w3.org/2000/svg">
<path d="M4.06 12.604C2.92133 11.8947 2.05333 11.008 1.456 9.944C0.858667 8.88 0.56 7.69467 0.56 6.388C0.56 5.09067 0.858667 3.91 1.456 2.846C2.06267 1.77267 2.93533 0.881333 4.074 0.172L4.844 1.04C3.892 1.70267 3.164 2.496 2.66 3.42C2.16533 4.33467 1.918 5.324 1.918 6.388C1.918 7.452 2.16533 8.446 2.66 9.37C3.164 10.2847 3.892 11.0733 4.844 11.736L4.06 12.604ZM8.16495 9.314V1.362L8.68295 1.754L6.75095 2.776L6.34495 1.46L8.96295 0.0599995H9.69095V9.314H8.16495ZM6.61095 10V8.544H11.287V10H6.61095ZM13.429 10L12.967 8.852L15.963 5.478C16.1216 5.31 16.285 5.11867 16.453 4.904C16.6303 4.68 16.7983 4.45133 16.957 4.218C17.1156 3.98467 17.2416 3.756 17.335 3.532C17.4376 3.29867 17.489 3.07933 17.489 2.874C17.489 2.57533 17.4283 2.32333 17.307 2.118C17.195 1.90333 17.027 1.74 16.803 1.628C16.5883 1.516 16.327 1.46 16.019 1.46C15.7483 1.46 15.4823 1.53933 15.221 1.698C14.9596 1.85667 14.7216 2.08067 14.507 2.37C14.2923 2.65933 14.1243 2.99533 14.003 3.378L12.841 2.65C12.9996 2.10867 13.2376 1.64667 13.555 1.264C13.8816 0.872 14.269 0.573333 14.717 0.368C15.1743 0.162666 15.669 0.0599995 16.201 0.0599995C16.7516 0.0599995 17.2416 0.176666 17.671 0.409999C18.1003 0.634 18.4363 0.951333 18.679 1.362C18.9216 1.76333 19.043 2.23 19.043 2.762C19.043 2.97667 19.0196 3.196 18.973 3.42C18.9263 3.644 18.8516 3.87733 18.749 4.12C18.6463 4.35333 18.5156 4.60067 18.357 4.862C18.1983 5.114 18.007 5.38 17.783 5.66C17.5683 5.94 17.321 6.234 17.041 6.542L14.815 8.964L14.535 8.544H19.351V10H13.429ZM23.3109 10.14C22.6202 10.14 22.0182 9.98133 21.5049 9.664C21.0009 9.34667 20.5249 8.81467 20.0769 8.068L21.2529 7.326C21.4862 7.67133 21.7149 7.956 21.9389 8.18C22.1722 8.39467 22.4102 8.55333 22.6529 8.656C22.8955 8.75867 23.1522 8.81 23.4229 8.81C23.7495 8.81 24.0529 8.73067 24.3329 8.572C24.6129 8.404 24.8369 8.17533 25.0049 7.886C25.1729 7.59667 25.2569 7.27 25.2569 6.906C25.2569 6.542 25.1915 6.234 25.0609 5.982C24.9302 5.72067 24.7389 5.52467 24.4869 5.394C24.2349 5.254 23.9362 5.184 23.5909 5.184C23.4322 5.184 23.2642 5.20267 23.0869 5.24C22.9189 5.268 22.7369 5.31467 22.5409 5.38C22.3449 5.436 22.1302 5.51067 21.8969 5.604L21.4769 4.498L24.5009 1.166L24.7949 1.6H20.6229V0.199999H26.2369L26.5169 0.76L23.3109 4.316L22.9609 3.952C23.0355 3.91467 23.1569 3.882 23.3249 3.854C23.5022 3.81667 23.6469 3.798 23.7589 3.798C24.1695 3.798 24.5522 3.87733 24.9069 4.036C25.2709 4.18533 25.5835 4.4 25.8449 4.68C26.1155 4.95067 26.3255 5.27267 26.4749 5.646C26.6335 6.01 26.7129 6.402 26.7129 6.822C26.7129 7.45667 26.5589 8.026 26.2509 8.53C25.9522 9.02467 25.5462 9.41667 25.0329 9.706C24.5195 9.99533 23.9455 10.14 23.3109 10.14ZM28.257 12.604L27.487 11.736C28.439 11.0733 29.1624 10.2847 29.657 9.37C30.161 8.446 30.413 7.452 30.413 6.388C30.413 5.324 30.161 4.33467 29.657 3.42C29.1624 2.496 28.439 1.70267 27.487 1.04L28.271 0.172C29.4097 0.881333 30.2777 1.768 30.875 2.832C31.4724 3.896 31.771 5.08133 31.771 6.388C31.771 7.68533 31.4677 8.87067 30.861 9.944C30.2637 11.008 29.3957 11.8947 28.257 12.604Z" fill="#70737C"/>
</svg>
