<svg width="148" height="72" viewBox="0 0 148 72" fill="none" xmlns="http://www.w3.org/2000/svg">
<rect x="1" y="1" width="146" height="70" rx="7" stroke="#EFEFEF" stroke-width="2"/>
<g clip-path="url(#clip0_23_2680)">
<path d="M38.3862 31.1756C37.1393 29.2725 35.187 28.0727 33.0923 27.7349C33.1137 27.5901 33.0923 27.4315 33.0139 27.2936C32.8643 27.0316 32.5579 26.8868 32.2444 26.9488L27.9195 27.8107L27.321 26.0318C27.2355 25.7766 27.0004 25.5905 26.7225 25.5629C26.4447 25.5353 26.1739 25.6663 26.0314 25.9008L24.7418 28.0314C23.8654 27.3832 22.7895 26.9419 21.6994 26.9419C21.3075 26.9419 20.9869 27.2522 20.9869 27.6314C20.9869 28.0107 21.3075 28.321 21.6994 28.321C22.5259 28.321 23.3524 28.7071 24.0079 29.2242L19.8825 31.8858C19.6189 32.0512 19.5049 32.3684 19.5975 32.658C19.683 32.9476 19.9609 33.1476 20.2744 33.1476H22.1768L21.0083 37.0985C20.9228 37.4019 21.051 37.7191 21.3289 37.8777C21.4429 37.9466 21.5712 37.9673 21.6994 37.9673C21.7137 40.222 22.7468 42.4078 24.6492 43.8144C27.4635 45.8898 31.5604 46.9448 36.8329 46.9448C37.0324 46.9448 37.2319 46.9448 37.4314 46.9379C39.0844 46.9103 40.488 45.6899 40.6947 44.0971C41.3715 38.8912 40.5949 34.5473 38.3862 31.1756ZM39.2839 43.9247C39.1628 44.8418 38.3648 45.5451 37.4172 45.5589C32.1803 45.6347 28.176 44.6832 25.5184 42.7181C23.6517 41.339 22.818 39.0292 23.2313 36.8089L24.2573 35.8505C23.3168 38.1259 23.9937 40.7254 25.953 42.1733C28.3827 43.9661 32.0449 44.8762 36.8329 44.8762C37.0253 44.8762 37.2176 44.8762 37.4172 44.8694C37.809 44.8625 38.1225 44.5453 38.1154 44.166C38.1083 43.7868 37.7877 43.4903 37.4029 43.4903C37.3958 43.4903 37.3958 43.4903 37.3887 43.4903C32.6505 43.5731 29.088 42.7456 26.8223 41.077C25.2975 39.9531 24.8273 37.8501 25.7108 36.0849L27.5562 38.4017C27.6844 38.5672 27.8982 38.6637 28.1119 38.6637C28.1903 38.6637 28.2687 38.6499 28.3399 38.6292C28.632 38.5327 28.8244 38.2707 28.8244 37.9742V33.0648L33.8974 32.4512C34.218 32.4098 34.4745 32.1685 34.5173 31.8582C34.56 31.5479 34.3819 31.2514 34.0827 31.1273L31.0759 29.9344L31.9879 29.0174C34.0185 29.0519 35.9922 30.0861 37.182 31.9064C39.2055 35.0093 39.918 39.0498 39.2839 43.9247ZM24.9413 30.2723C24.9555 30.2654 24.9555 30.2585 24.9627 30.2516C25.155 30.5481 25.2619 30.8377 25.2619 31.079C25.2619 31.4583 25.5825 31.7685 25.9744 31.7685C26.3663 31.7685 26.6869 31.4583 26.6869 31.079C26.6869 30.424 26.3449 29.6862 25.7892 29.0174L26.4518 27.921L26.7582 28.8312C26.8722 29.1691 27.2284 29.3621 27.5775 29.2932L30.2637 28.7554L29.3089 29.7138C29.145 29.8793 29.0738 30.1137 29.1237 30.3344C29.1735 30.555 29.3303 30.7412 29.5512 30.8308L31.0189 31.41L28.0193 31.7754C27.6702 31.8168 27.3994 32.1133 27.3994 32.4581V35.947L25.6182 33.7061C25.497 33.5475 25.3047 33.451 25.1052 33.4372C25.0909 33.4372 25.0695 33.4372 25.0553 33.4372C24.87 33.4372 24.6919 33.5061 24.5565 33.6302L23.1173 34.9817L23.8084 32.6373C23.8725 32.4374 23.8298 32.2167 23.6944 32.0444C23.559 31.872 23.3453 31.7685 23.1244 31.7685H22.6257L24.9413 30.2723Z" fill="#359740"/>
<path d="M31.1691 35.7053C31.3116 35.8363 31.4897 35.9052 31.675 35.9052C31.8602 35.9052 32.0384 35.8363 32.1809 35.7053C32.4587 35.4364 32.4587 35.002 32.1809 34.7331L31.4684 34.0435C31.1905 33.7746 30.7416 33.7746 30.4637 34.0435C30.1859 34.3125 30.1859 34.7468 30.4637 35.0158L31.1691 35.7053Z" fill="#359740"/>
<path d="M35.4441 35.0158C35.5866 35.1468 35.7647 35.2157 35.95 35.2157C36.1352 35.2157 36.3133 35.1468 36.4558 35.0158C36.7337 34.7468 36.7337 34.3125 36.4558 34.0435L35.7433 33.354C35.4655 33.0851 35.0166 33.0851 34.7387 33.354C34.4608 33.6229 34.4608 34.0573 34.7387 34.3262L35.4441 35.0158Z" fill="#359740"/>
<path d="M32.1809 39.5528L31.4684 38.8632C31.1905 38.5943 30.7416 38.5943 30.4637 38.8632C30.1859 39.1322 30.1859 39.5665 30.4637 39.8355L31.1762 40.525C31.3116 40.6629 31.4897 40.7318 31.675 40.7318C31.8602 40.7318 32.0384 40.6629 32.1809 40.5319C32.4587 40.263 32.4587 39.8217 32.1809 39.5528Z" fill="#359740"/>
<path d="M34.0192 38.4633C34.1617 38.5943 34.3398 38.6633 34.525 38.6633C34.7103 38.6633 34.8884 38.5943 35.0309 38.4633C35.3088 38.1944 35.3088 37.76 35.0309 37.4911L34.3184 36.8016C34.0405 36.5327 33.5917 36.5327 33.3138 36.8016C33.0359 37.0705 33.0359 37.5049 33.3138 37.7738L34.0192 38.4633Z" fill="#359740"/>
<path d="M36.8692 38.4633L37.5817 39.1528C37.7242 39.2839 37.9023 39.3528 38.0875 39.3528C38.2728 39.3528 38.4509 39.2839 38.5934 39.1528C38.8713 38.8839 38.8713 38.4495 38.5934 38.1806L37.8809 37.4911C37.603 37.2222 37.1542 37.2222 36.8763 37.4911C36.5913 37.7531 36.5913 38.1944 36.8692 38.4633Z" fill="#359740"/>
<path d="M35.7433 40.2423C35.4655 39.9734 35.0166 39.9734 34.7387 40.2423C34.4608 40.5112 34.4608 40.9456 34.7387 41.2145L35.4512 41.9041C35.5866 42.042 35.7647 42.1109 35.95 42.1109C36.1352 42.1109 36.3133 42.042 36.4558 41.911C36.7337 41.642 36.7337 41.2077 36.4558 40.9387L35.7433 40.2423Z" fill="#359740"/>
</g>
<path d="M61.4023 41.5V31.7H62.9143V41.5H61.4023ZM62.0743 37.328V35.872H67.1283V37.328H62.0743ZM62.0743 33.156V31.7H67.7583V33.156H62.0743ZM69.8241 41.5V31.7H73.9961C74.5561 31.7 75.0695 31.84 75.5361 32.12C76.0121 32.3907 76.3901 32.764 76.6701 33.24C76.9501 33.7067 77.0901 34.234 77.0901 34.822C77.0901 35.354 76.9501 35.8487 76.6701 36.306C76.3901 36.7633 76.0168 37.132 75.5501 37.412C75.0835 37.6827 74.5655 37.818 73.9961 37.818H71.3361V41.5H69.8241ZM75.6481 41.5L73.1561 37.076L74.7101 36.726L77.4821 41.514L75.6481 41.5ZM71.3361 36.362H74.1361C74.4068 36.362 74.6495 36.2967 74.8641 36.166C75.0788 36.026 75.2468 35.8393 75.3681 35.606C75.4895 35.3633 75.5501 35.0973 75.5501 34.808C75.5501 34.4813 75.4708 34.1967 75.3121 33.954C75.1628 33.702 74.9481 33.506 74.6681 33.366C74.3975 33.226 74.0895 33.156 73.7441 33.156H71.3361V36.362ZM83.2982 41.584C82.5422 41.584 81.8655 41.4207 81.2682 41.094C80.6708 40.758 80.1995 40.3007 79.8542 39.722C79.5182 39.134 79.3502 38.4713 79.3502 37.734V31.686H80.8622V37.608C80.8622 38.084 80.9742 38.5133 81.1982 38.896C81.4222 39.2693 81.7162 39.568 82.0802 39.792C82.4535 40.016 82.8595 40.128 83.2982 40.128C83.7648 40.128 84.1848 40.016 84.5582 39.792C84.9408 39.568 85.2442 39.2693 85.4682 38.896C85.6922 38.5133 85.8042 38.084 85.8042 37.608V31.686H87.2462V37.734C87.2462 38.4713 87.0735 39.134 86.7282 39.722C86.3922 40.3007 85.9255 40.758 85.3282 41.094C84.7308 41.4207 84.0542 41.584 83.2982 41.584ZM89.4894 41.5V40.1H91.0714V33.1H89.4894V31.7H94.1654V33.1H92.5834V40.1H94.1654V41.5H89.4894ZM98.401 41.5V33.156H95.657V31.7H102.741V33.156H99.913V41.5H98.401ZM107.629 41.64C107.097 41.64 106.603 41.57 106.145 41.43C105.697 41.29 105.287 41.08 104.913 40.8C104.549 40.5107 104.223 40.156 103.933 39.736L104.969 38.546C105.427 39.1993 105.865 39.652 106.285 39.904C106.705 40.156 107.205 40.282 107.783 40.282C108.138 40.282 108.46 40.226 108.749 40.114C109.039 40.002 109.267 39.848 109.435 39.652C109.603 39.456 109.687 39.232 109.687 38.98C109.687 38.812 109.659 38.6533 109.603 38.504C109.547 38.3547 109.459 38.2193 109.337 38.098C109.225 37.9767 109.076 37.8647 108.889 37.762C108.712 37.6593 108.502 37.5707 108.259 37.496C108.017 37.412 107.737 37.342 107.419 37.286C106.915 37.1833 106.477 37.048 106.103 36.88C105.73 36.712 105.417 36.502 105.165 36.25C104.913 35.998 104.727 35.7133 104.605 35.396C104.484 35.0693 104.423 34.7053 104.423 34.304C104.423 33.912 104.507 33.548 104.675 33.212C104.853 32.876 105.091 32.5867 105.389 32.344C105.697 32.092 106.057 31.9007 106.467 31.77C106.878 31.63 107.321 31.56 107.797 31.56C108.301 31.56 108.763 31.6253 109.183 31.756C109.603 31.8867 109.977 32.0827 110.303 32.344C110.63 32.596 110.901 32.9087 111.115 33.282L110.051 34.332C109.865 34.024 109.655 33.7673 109.421 33.562C109.188 33.3473 108.931 33.1887 108.651 33.086C108.371 32.974 108.073 32.918 107.755 32.918C107.391 32.918 107.074 32.974 106.803 33.086C106.533 33.198 106.318 33.3567 106.159 33.562C106.01 33.758 105.935 33.9913 105.935 34.262C105.935 34.458 105.973 34.64 106.047 34.808C106.122 34.9667 106.234 35.1113 106.383 35.242C106.542 35.3633 106.752 35.4753 107.013 35.578C107.275 35.6713 107.587 35.7553 107.951 35.83C108.465 35.942 108.922 36.0867 109.323 36.264C109.725 36.432 110.065 36.6327 110.345 36.866C110.625 37.0993 110.835 37.3607 110.975 37.65C111.125 37.9393 111.199 38.252 111.199 38.588C111.199 39.2133 111.055 39.7547 110.765 40.212C110.476 40.6693 110.065 41.024 109.533 41.276C109.001 41.5187 108.367 41.64 107.629 41.64Z" fill="#1F2533"/>
<defs>
<clipPath id="clip0_23_2680">
<rect width="21.375" height="21.375" fill="white" transform="translate(19.5625 25.5625)"/>
</clipPath>
</defs>
</svg>
