<svg width="336" height="54" viewBox="0 0 336 54" fill="none" xmlns="http://www.w3.org/2000/svg">
<path d="M36.2651 25.7765C35.4967 24.047 34.3797 22.4947 32.9839 21.2167L31.832 20.1599C31.7929 20.125 31.7459 20.1002 31.6949 20.0877C31.644 20.0753 31.5908 20.0755 31.54 20.0884C31.4892 20.1013 31.4424 20.1265 31.4036 20.1617C31.3648 20.1969 31.3352 20.2411 31.3175 20.2905L30.8029 21.7669C30.4823 22.6931 29.8925 23.6391 29.0574 24.5692C29.002 24.6286 28.9386 24.6444 28.8951 24.6484C28.8516 24.6523 28.7843 24.6444 28.7249 24.589C28.6695 24.5415 28.6418 24.4703 28.6457 24.399C28.7922 22.0162 28.0797 19.3286 26.5202 16.4036C25.2299 13.9733 23.4368 12.0773 21.1965 10.7553L19.5618 9.79349C19.3481 9.66683 19.075 9.83307 19.0868 10.0824L19.1739 11.9823C19.2333 13.2806 19.0829 14.4285 18.7266 15.3824C18.2912 16.55 17.6659 17.6346 16.8663 18.6083C16.3099 19.285 15.6792 19.897 14.9862 20.433C13.3171 21.7161 11.9599 23.3601 11.0162 25.2421C10.0748 27.1405 9.58449 29.2306 9.58334 31.3495C9.58334 33.2177 9.95145 35.0266 10.6797 36.7326C11.383 38.3751 12.3978 39.8657 13.6681 41.1222C14.9506 42.3888 16.4388 43.3862 18.0973 44.0789C19.8151 44.7993 21.6359 45.1634 23.516 45.1634C25.3961 45.1634 27.2168 44.7993 28.9347 44.0828C30.5891 43.3942 32.0934 42.3899 33.3638 41.1261C34.6463 39.8595 35.6516 38.3792 36.3522 36.7365C37.0794 35.0352 37.4525 33.2037 37.4486 31.3535C37.4486 29.4219 37.0528 27.5457 36.2651 25.7765Z" fill="#E55C5C"/>
<path d="M75.356 43.42C72.724 43.42 70.428 42.986 68.468 42.118C66.536 41.222 64.87 39.92 63.47 38.212L66.746 33.34C68.258 35.076 69.714 36.294 71.114 36.994C72.542 37.694 74.082 38.044 75.734 38.044C76.602 38.044 77.372 37.918 78.044 37.666C78.744 37.414 79.29 37.078 79.682 36.658C80.074 36.21 80.27 35.678 80.27 35.062C80.27 34.614 80.172 34.208 79.976 33.844C79.78 33.452 79.5 33.116 79.136 32.836C78.772 32.528 78.338 32.262 77.834 32.038C77.33 31.786 76.77 31.576 76.154 31.408C75.538 31.212 74.866 31.058 74.138 30.946C72.038 30.498 70.288 29.868 68.888 29.056C67.488 28.244 66.452 27.236 65.78 26.032C65.108 24.828 64.772 23.4 64.772 21.748C64.772 20.488 65.052 19.326 65.612 18.262C66.172 17.17 66.942 16.232 67.922 15.448C68.93 14.664 70.078 14.062 71.366 13.642C72.682 13.222 74.068 13.012 75.524 13.012C77.876 13.012 79.948 13.404 81.74 14.188C83.56 14.944 85.128 16.12 86.444 17.716L83.42 22.084C82.384 20.88 81.194 19.97 79.85 19.354C78.534 18.738 77.134 18.43 75.65 18.43C74.726 18.43 73.928 18.556 73.256 18.808C72.584 19.032 72.052 19.382 71.66 19.858C71.296 20.306 71.114 20.838 71.114 21.454C71.114 21.958 71.24 22.406 71.492 22.798C71.744 23.19 72.108 23.54 72.584 23.848C73.06 24.128 73.634 24.38 74.306 24.604C74.978 24.828 75.72 25.024 76.532 25.192C78.072 25.5 79.458 25.906 80.69 26.41C81.922 26.914 82.972 27.53 83.84 28.258C84.736 28.958 85.422 29.798 85.898 30.778C86.374 31.73 86.612 32.808 86.612 34.012C86.612 36 86.136 37.694 85.184 39.094C84.232 40.494 82.916 41.572 81.236 42.328C79.556 43.056 77.596 43.42 75.356 43.42ZM72.836 46.822L73.172 27.418L76.742 28.804L77.078 46.822H72.836ZM78.002 28.846L74.432 27.46L74.096 9.988H78.338L78.002 28.846ZM97.4421 40.942V17.086L98.9961 19.9L92.8641 22.882L91.6461 17.296L99.8361 13.18H103.658V40.942H97.4421ZM92.2761 43V37.33H108.95V43H92.2761ZM114.2 43L112.814 39.556L121.508 29.938C121.984 29.434 122.488 28.846 123.02 28.174C123.58 27.502 124.112 26.816 124.616 26.116C125.148 25.388 125.568 24.688 125.876 24.016C126.184 23.344 126.338 22.714 126.338 22.126C126.338 21.482 126.198 20.922 125.918 20.446C125.638 19.942 125.232 19.55 124.7 19.27C124.168 18.99 123.51 18.85 122.726 18.85C121.998 18.85 121.312 19.046 120.668 19.438C120.024 19.802 119.422 20.348 118.862 21.076C118.302 21.804 117.812 22.686 117.392 23.722L112.688 21.118C113.248 19.494 114.046 18.08 115.082 16.876C116.118 15.644 117.35 14.692 118.778 14.02C120.206 13.348 121.732 13.012 123.356 13.012C125.064 13.012 126.604 13.376 127.976 14.104C129.348 14.804 130.426 15.784 131.21 17.044C131.994 18.304 132.386 19.76 132.386 21.412C132.386 22.028 132.316 22.658 132.176 23.302C132.064 23.946 131.854 24.618 131.546 25.318C131.266 26.018 130.888 26.76 130.412 27.544C129.964 28.3 129.404 29.112 128.732 29.98C128.088 30.82 127.346 31.702 126.506 32.626L119.828 39.892L118.988 37.33H133.604V43H114.2ZM139.478 43.462C138.386 43.462 137.546 43.154 136.958 42.538C136.37 41.922 136.076 41.04 136.076 39.892C136.076 38.856 136.384 38.016 137 37.372C137.644 36.7 138.47 36.364 139.478 36.364C140.542 36.364 141.368 36.672 141.956 37.288C142.544 37.904 142.838 38.772 142.838 39.892C142.838 40.956 142.53 41.824 141.914 42.496C141.298 43.14 140.486 43.462 139.478 43.462ZM156.154 43.294C154.026 43.294 152.094 42.86 150.358 41.992C148.65 41.096 147.222 39.808 146.074 38.128L149.476 34.348C150.68 35.692 151.772 36.602 152.752 37.078C153.732 37.554 154.81 37.792 155.986 37.792C156.966 37.792 157.848 37.596 158.632 37.204C159.416 36.784 160.032 36.21 160.48 35.482C160.928 34.754 161.152 33.942 161.152 33.046C161.152 32.122 160.928 31.296 160.48 30.568C160.032 29.84 159.43 29.266 158.674 28.846C157.946 28.398 157.106 28.174 156.154 28.174C155.538 28.174 154.964 28.23 154.432 28.342C153.9 28.426 153.312 28.608 152.668 28.888C152.024 29.14 151.24 29.518 150.316 30.022L147.46 26.242L149.266 13.432H165.814V18.85H152.458L154.012 17.002L152.626 26.326L150.61 25.36C151.03 24.968 151.604 24.604 152.332 24.268C153.088 23.904 153.9 23.624 154.768 23.428C155.664 23.204 156.532 23.092 157.372 23.092C159.22 23.092 160.858 23.512 162.286 24.352C163.742 25.192 164.89 26.368 165.73 27.88C166.598 29.364 167.032 31.072 167.032 33.004C167.032 34.936 166.556 36.686 165.604 38.254C164.652 39.794 163.35 41.026 161.698 41.95C160.046 42.846 158.198 43.294 156.154 43.294ZM181.477 43C179.993 43 178.593 42.734 177.277 42.202C175.989 41.67 174.855 40.928 173.875 39.976C172.923 38.996 172.167 37.876 171.607 36.616C171.075 35.328 170.809 33.942 170.809 32.458C170.809 31.506 170.907 30.554 171.103 29.602C171.327 28.65 171.649 27.656 172.069 26.62C172.489 25.584 172.993 24.52 173.581 23.428C174.169 22.308 174.827 21.132 175.555 19.9L179.587 13.138H185.467L185.635 13.558L180.301 22.168C179.545 23.4 178.873 24.576 178.285 25.696C177.725 26.816 177.221 27.894 176.773 28.93C176.353 29.966 175.961 31.016 175.597 32.08L174.379 28.72C174.743 27.768 175.233 26.914 175.849 26.158C176.465 25.374 177.165 24.716 177.949 24.184C178.733 23.624 179.559 23.204 180.427 22.924C181.295 22.616 182.149 22.462 182.989 22.462C184.641 22.462 186.153 22.91 187.525 23.806C188.925 24.674 190.031 25.836 190.843 27.292C191.683 28.748 192.103 30.344 192.103 32.08C192.103 34.18 191.641 36.056 190.717 37.708C189.821 39.332 188.575 40.62 186.979 41.572C185.383 42.524 183.549 43 181.477 43ZM181.561 37.666C182.513 37.666 183.353 37.456 184.081 37.036C184.837 36.588 185.425 35.972 185.845 35.188C186.265 34.404 186.475 33.508 186.475 32.5C186.475 31.632 186.251 30.82 185.803 30.064C185.383 29.28 184.809 28.65 184.081 28.174C183.353 27.698 182.527 27.46 181.603 27.46C180.623 27.46 179.741 27.698 178.957 28.174C178.201 28.622 177.599 29.224 177.151 29.98C176.731 30.736 176.521 31.562 176.521 32.458C176.521 33.466 176.731 34.362 177.151 35.146C177.599 35.902 178.201 36.518 178.957 36.994C179.713 37.442 180.581 37.666 181.561 37.666Z" fill="#1F2533"/>
<path d="M221.996 37.22C220.617 37.22 219.415 36.9927 218.388 36.538C217.376 36.0687 216.503 35.3867 215.77 34.492L217.486 31.94C218.278 32.8493 219.041 33.4873 219.774 33.854C220.522 34.2207 221.329 34.404 222.194 34.404C222.649 34.404 223.052 34.338 223.404 34.206C223.771 34.074 224.057 33.898 224.262 33.678C224.467 33.4433 224.57 33.1647 224.57 32.842C224.57 32.6073 224.519 32.3947 224.416 32.204C224.313 31.9987 224.167 31.8227 223.976 31.676C223.785 31.5147 223.558 31.3753 223.294 31.258C223.03 31.126 222.737 31.016 222.414 30.928C222.091 30.8253 221.739 30.7447 221.358 30.686C220.258 30.4513 219.341 30.1213 218.608 29.696C217.875 29.2707 217.332 28.7427 216.98 28.112C216.628 27.4813 216.452 26.7333 216.452 25.868C216.452 25.208 216.599 24.5993 216.892 24.042C217.185 23.47 217.589 22.9787 218.102 22.568C218.63 22.1573 219.231 21.842 219.906 21.622C220.595 21.402 221.321 21.292 222.084 21.292C223.316 21.292 224.401 21.4973 225.34 21.908C226.293 22.304 227.115 22.92 227.804 23.756L226.22 26.044C225.677 25.4133 225.054 24.9367 224.35 24.614C223.661 24.2913 222.927 24.13 222.15 24.13C221.666 24.13 221.248 24.196 220.896 24.328C220.544 24.4453 220.265 24.6287 220.06 24.878C219.869 25.1127 219.774 25.3913 219.774 25.714C219.774 25.978 219.84 26.2127 219.972 26.418C220.104 26.6233 220.295 26.8067 220.544 26.968C220.793 27.1147 221.094 27.2467 221.446 27.364C221.798 27.4813 222.187 27.584 222.612 27.672C223.419 27.8333 224.145 28.046 224.79 28.31C225.435 28.574 225.985 28.8967 226.44 29.278C226.909 29.6447 227.269 30.0847 227.518 30.598C227.767 31.0967 227.892 31.6613 227.892 32.292C227.892 33.3333 227.643 34.2207 227.144 34.954C226.645 35.6873 225.956 36.252 225.076 36.648C224.196 37.0293 223.169 37.22 221.996 37.22ZM220.676 39.002L220.852 28.838L222.722 29.564L222.898 39.002H220.676ZM223.382 29.586L221.512 28.86L221.336 19.708H223.558L223.382 29.586ZM233.565 35.922V23.426L234.379 24.9L231.167 26.462L230.529 23.536L234.819 21.38H236.821V35.922H233.565ZM230.859 37V34.03H239.593V37H230.859ZM246.831 37.154C245.716 37.154 244.704 36.9267 243.795 36.472C242.9 36.0027 242.152 35.328 241.551 34.448L243.333 32.468C243.963 33.172 244.535 33.6487 245.049 33.898C245.562 34.1473 246.127 34.272 246.743 34.272C247.256 34.272 247.718 34.1693 248.129 33.964C248.539 33.744 248.862 33.4433 249.097 33.062C249.331 32.6807 249.449 32.2553 249.449 31.786C249.449 31.302 249.331 30.8693 249.097 30.488C248.862 30.1067 248.547 29.806 248.151 29.586C247.769 29.3513 247.329 29.234 246.831 29.234C246.508 29.234 246.207 29.2633 245.929 29.322C245.65 29.366 245.342 29.4613 245.005 29.608C244.667 29.74 244.257 29.938 243.773 30.202L242.277 28.222L243.223 21.512H251.891V24.35H244.895L245.709 23.382L244.983 28.266L243.927 27.76C244.147 27.5547 244.447 27.364 244.829 27.188C245.225 26.9973 245.65 26.8507 246.105 26.748C246.574 26.6307 247.029 26.572 247.469 26.572C248.437 26.572 249.295 26.792 250.043 27.232C250.805 27.672 251.407 28.288 251.847 29.08C252.301 29.8573 252.529 30.752 252.529 31.764C252.529 32.776 252.279 33.6927 251.781 34.514C251.282 35.3207 250.6 35.966 249.735 36.45C248.869 36.9193 247.901 37.154 246.831 37.154ZM256.443 37.242C255.871 37.242 255.431 37.0807 255.123 36.758C254.815 36.4353 254.661 35.9733 254.661 35.372C254.661 34.8293 254.822 34.3893 255.145 34.052C255.482 33.7 255.915 33.524 256.443 33.524C257 33.524 257.433 33.6853 257.741 34.008C258.049 34.3307 258.203 34.7853 258.203 35.372C258.203 35.9293 258.042 36.384 257.719 36.736C257.396 37.0733 256.971 37.242 256.443 37.242ZM265.178 37.154C264.064 37.154 263.052 36.9267 262.142 36.472C261.248 36.0027 260.5 35.328 259.898 34.448L261.68 32.468C262.311 33.172 262.883 33.6487 263.396 33.898C263.91 34.1473 264.474 34.272 265.09 34.272C265.604 34.272 266.066 34.1693 266.476 33.964C266.887 33.744 267.21 33.4433 267.444 33.062C267.679 32.6807 267.796 32.2553 267.796 31.786C267.796 31.302 267.679 30.8693 267.444 30.488C267.21 30.1067 266.894 29.806 266.498 29.586C266.117 29.3513 265.677 29.234 265.178 29.234C264.856 29.234 264.555 29.2633 264.276 29.322C263.998 29.366 263.69 29.4613 263.352 29.608C263.015 29.74 262.604 29.938 262.12 30.202L260.624 28.222L261.57 21.512H270.238V24.35H263.242L264.056 23.382L263.33 28.266L262.274 27.76C262.494 27.5547 262.795 27.364 263.176 27.188C263.572 26.9973 263.998 26.8507 264.452 26.748C264.922 26.6307 265.376 26.572 265.816 26.572C266.784 26.572 267.642 26.792 268.39 27.232C269.153 27.672 269.754 28.288 270.194 29.08C270.649 29.8573 270.876 30.752 270.876 31.764C270.876 32.776 270.627 33.6927 270.128 34.514C269.63 35.3207 268.948 35.966 268.082 36.45C267.217 36.9193 266.249 37.154 265.178 37.154ZM278.443 37C277.665 37 276.932 36.8607 276.243 36.582C275.568 36.3033 274.974 35.9147 274.461 35.416C273.962 34.9027 273.566 34.316 273.273 33.656C272.994 32.9813 272.855 32.2553 272.855 31.478C272.855 30.9793 272.906 30.4807 273.009 29.982C273.126 29.4833 273.295 28.9627 273.514 28.42C273.735 27.8773 273.999 27.32 274.307 26.748C274.615 26.1613 274.959 25.5453 275.341 24.9L277.453 21.358H280.533L280.621 21.578L277.827 26.088C277.431 26.7333 277.079 27.3493 276.771 27.936C276.477 28.5227 276.213 29.0873 275.979 29.63C275.759 30.1727 275.553 30.7227 275.363 31.28L274.725 29.52C274.915 29.0213 275.172 28.574 275.495 28.178C275.817 27.7673 276.184 27.4227 276.595 27.144C277.005 26.8507 277.438 26.6307 277.893 26.484C278.347 26.3227 278.795 26.242 279.235 26.242C280.1 26.242 280.892 26.4767 281.611 26.946C282.344 27.4007 282.923 28.0093 283.349 28.772C283.789 29.5347 284.009 30.3707 284.009 31.28C284.009 32.38 283.767 33.3627 283.283 34.228C282.813 35.0787 282.161 35.7533 281.325 36.252C280.489 36.7507 279.528 37 278.443 37ZM278.487 34.206C278.985 34.206 279.425 34.096 279.807 33.876C280.203 33.6413 280.511 33.3187 280.731 32.908C280.951 32.4973 281.061 32.028 281.061 31.5C281.061 31.0453 280.943 30.62 280.709 30.224C280.489 29.8133 280.188 29.4833 279.807 29.234C279.425 28.9847 278.993 28.86 278.509 28.86C277.995 28.86 277.533 28.9847 277.123 29.234C276.727 29.4687 276.411 29.784 276.177 30.18C275.957 30.576 275.847 31.0087 275.847 31.478C275.847 32.006 275.957 32.4753 276.177 32.886C276.411 33.282 276.727 33.6047 277.123 33.854C277.519 34.0887 277.973 34.206 278.487 34.206Z" fill="#70737C"/>
<line x1="215" y1="28.5" x2="285" y2="28.5" stroke="#70737C"/>
</svg>
