<svg width="110" height="72" viewBox="0 0 110 72" fill="none" xmlns="http://www.w3.org/2000/svg">
<rect x="1" y="1" width="108" height="70" rx="7" stroke="#EFEFEF" stroke-width="2"/>
<path d="M39.8161 47.8609C39.9233 47.6945 39.9604 47.4924 39.9193 47.2988C39.8782 47.1052 39.7622 46.9357 39.5966 46.8273C38.7857 46.301 37.8447 45.6848 36.8332 44.9895C37.2271 43.4072 37.4813 41.7934 37.5928 40.1666C37.7549 37.2923 37.2621 34.9818 36.126 33.1682C33.9142 29.6645 29.6997 28.8037 26.3089 28.1095C24.2239 27.6841 22.2573 27.2879 21.4525 26.3865C21.3578 26.2811 21.2352 26.2047 21.0988 26.1662C20.9625 26.1277 20.818 26.1286 20.6822 26.1689C20.5464 26.2092 20.4247 26.2872 20.3314 26.3939C20.2381 26.5005 20.1769 26.6314 20.1549 26.7714C20.0618 27.2242 18.5979 37.6167 24.0918 43.0774C26.8001 45.7606 30.6994 46.7538 35.6942 46.0216C36.8192 46.8359 37.8627 47.4955 38.783 48.0805C38.9492 48.1877 39.1512 48.2248 39.3447 48.1837C39.5383 48.1426 39.7077 48.0265 39.8161 47.8609ZM25.1347 42.0174C21.2531 38.1793 21.3409 31.1634 21.5029 28.2891C22.9394 28.9224 24.4548 29.3588 26.008 29.5868C29.2804 30.2518 32.9829 31.0087 34.8575 33.9677C36.2901 36.2486 36.501 39.5644 35.5051 44.0511C31.5669 41.2161 27.1242 37.3464 25.7454 32.9135C25.6782 32.7343 25.545 32.5876 25.3731 32.5035C25.2013 32.4194 25.0038 32.4043 24.8211 32.4612C24.6385 32.5181 24.4845 32.6428 24.3907 32.8096C24.2969 32.9765 24.2705 33.1729 24.3169 33.3586C25.7321 37.9437 29.9504 41.8008 33.8618 44.7094C30.1402 44.9577 27.2188 44.0572 25.1501 42.0108L25.1347 42.0174Z" fill="#359740"/>
<path d="M52.5678 41.5L56.3618 31.7H57.9018L61.6678 41.5H60.0578L57.8178 35.592C57.7898 35.5267 57.7338 35.368 57.6498 35.116C57.5751 34.864 57.4864 34.584 57.3838 34.276C57.2811 33.968 57.1878 33.688 57.1038 33.436C57.0198 33.1747 56.9638 33.0067 56.9358 32.932L57.2578 32.918C57.2018 33.0767 57.1318 33.2773 57.0478 33.52C56.9731 33.7627 56.8891 34.0193 56.7958 34.29C56.7118 34.5607 56.6278 34.8173 56.5438 35.06C56.4598 35.2933 56.3898 35.4893 56.3338 35.648L54.1078 41.5H52.5678ZM54.2478 39.064L54.8078 37.608H59.2598L59.9038 39.064H54.2478ZM63.3925 41.5V31.7H64.9045V40.044H69.4965V41.5H63.3925ZM71.7734 41.5V31.7H73.2854V40.044H77.8774V41.5H71.7734Z" fill="#1F2533"/>
</svg>
