<svg width="144" height="72" viewBox="0 0 144 72" fill="none" xmlns="http://www.w3.org/2000/svg">
<rect x="1" y="1" width="142" height="70" rx="7" stroke="#EFEFEF" stroke-width="2"/>
<path d="M23.0116 28.54C22.8279 29.1236 23.2841 30.4148 23.4852 30.6398L23.31 30.9371L26.8536 43.3102C27.0528 44.0594 27.6301 44.1065 27.8938 44.0363L37.1521 41.575C38.0715 41.4643 38.2297 40.9543 38.1938 40.7132L34.7839 27.8867L34.4051 27.7368C34.5608 27.4726 34.6515 26.114 34.169 25.5738C33.5659 24.8986 23.2413 27.8105 23.0116 28.54Z" stroke="#359740" stroke-width="1.5"/>
<path d="M20.0383 35.1508C19.9522 35.7723 20.6924 36.8968 20.9525 37.0576L20.8207 37.3978L27.0199 48.4149C27.3787 49.0864 28.0105 48.9647 28.2815 48.8199L37.7951 43.7374C38.7656 43.3627 38.8382 42.8204 38.7532 42.5961L32.611 31.0989L32.1737 31.0628C32.2908 30.7605 32.1276 29.4116 31.5034 29.0257C30.7231 28.5434 20.1459 34.374 20.0383 35.1508Z" fill="white" stroke="#359740" stroke-width="1.5"/>
<path d="M53.7802 41.5V31.7H57.8682C58.4935 31.7 59.0209 31.7933 59.4502 31.98C59.8795 32.1667 60.2015 32.4467 60.4162 32.82C60.6402 33.184 60.7522 33.632 60.7522 34.164C60.7522 34.696 60.6029 35.1487 60.3042 35.522C60.0149 35.8953 59.6089 36.152 59.0862 36.292V36.012C59.5249 36.1053 59.9075 36.2733 60.2342 36.516C60.5609 36.7493 60.8129 37.0433 60.9902 37.398C61.1769 37.7527 61.2702 38.1587 61.2702 38.616C61.2702 39.0827 61.1955 39.498 61.0462 39.862C60.9062 40.2167 60.6915 40.5153 60.4022 40.758C60.1222 41.0007 59.7815 41.1873 59.3802 41.318C58.9789 41.4393 58.5215 41.5 58.0082 41.5H53.7802ZM55.2922 40.044H57.9242C58.3069 40.044 58.6289 39.988 58.8902 39.876C59.1609 39.764 59.3662 39.6007 59.5062 39.386C59.6555 39.162 59.7302 38.896 59.7302 38.588C59.7302 38.2987 59.6509 38.0513 59.4922 37.846C59.3429 37.6407 59.1282 37.4867 58.8482 37.384C58.5682 37.272 58.2369 37.216 57.8542 37.216H55.2922V40.044ZM55.2922 35.76H57.7842C58.0642 35.76 58.3115 35.704 58.5262 35.592C58.7502 35.48 58.9229 35.326 59.0442 35.13C59.1749 34.934 59.2402 34.71 59.2402 34.458C59.2402 34.038 59.1002 33.716 58.8202 33.492C58.5402 33.268 58.1389 33.156 57.6162 33.156H55.2922V35.76ZM67.1175 41.584C66.3615 41.584 65.6848 41.4207 65.0875 41.094C64.4902 40.758 64.0188 40.3007 63.6735 39.722C63.3375 39.134 63.1695 38.4713 63.1695 37.734V31.686H64.6815V37.608C64.6815 38.084 64.7935 38.5133 65.0175 38.896C65.2415 39.2693 65.5355 39.568 65.8995 39.792C66.2728 40.016 66.6788 40.128 67.1175 40.128C67.5842 40.128 68.0042 40.016 68.3775 39.792C68.7602 39.568 69.0635 39.2693 69.2875 38.896C69.5115 38.5133 69.6235 38.084 69.6235 37.608V31.686H71.0655V37.734C71.0655 38.4713 70.8928 39.134 70.5475 39.722C70.2115 40.3007 69.7448 40.758 69.1475 41.094C68.5502 41.4207 67.8735 41.584 67.1175 41.584ZM73.6728 41.5V31.7H75.0308L81.0228 39.722L80.7988 39.848C80.7614 39.6147 80.7288 39.3627 80.7008 39.092C80.6728 38.812 80.6448 38.518 80.6168 38.21C80.5981 37.8927 80.5794 37.5613 80.5608 37.216C80.5514 36.8613 80.5421 36.4927 80.5328 36.11C80.5234 35.7273 80.5188 35.3307 80.5188 34.92V31.7H82.0308V41.5H80.6448L74.7508 33.772L74.9048 33.576C74.9514 34.1453 74.9888 34.6307 75.0168 35.032C75.0541 35.424 75.0821 35.76 75.1008 36.04C75.1288 36.3107 75.1474 36.5347 75.1568 36.712C75.1661 36.88 75.1708 37.02 75.1708 37.132C75.1801 37.244 75.1848 37.342 75.1848 37.426V41.5H73.6728ZM84.7743 41.5V31.7H88.6103C89.3103 31.7 89.9403 31.8167 90.5003 32.05C91.0697 32.2833 91.555 32.6193 91.9563 33.058C92.3577 33.4967 92.6657 34.0147 92.8803 34.612C93.095 35.2093 93.2023 35.872 93.2023 36.6C93.2023 37.328 93.095 37.9953 92.8803 38.602C92.6657 39.1993 92.3577 39.7173 91.9563 40.156C91.5643 40.5853 91.0837 40.9167 90.5143 41.15C89.945 41.3833 89.3103 41.5 88.6103 41.5H84.7743ZM86.2863 40.198L86.2443 40.044H88.5403C89.035 40.044 89.4737 39.9647 89.8563 39.806C90.2483 39.6473 90.575 39.4233 90.8363 39.134C91.107 38.8353 91.3123 38.4713 91.4523 38.042C91.5923 37.6127 91.6623 37.132 91.6623 36.6C91.6623 36.068 91.5923 35.592 91.4523 35.172C91.3123 34.7427 91.107 34.3787 90.8363 34.08C90.5657 33.7813 90.239 33.5527 89.8563 33.394C89.4737 33.2353 89.035 33.156 88.5403 33.156H86.2023L86.2863 33.03V40.198ZM95.247 41.5V31.7H96.759V40.044H101.351V41.5H95.247ZM103.628 41.5V31.7H109.802V33.156H105.14V40.044H109.802V41.5H103.628ZM104.314 37.202V35.746H109.032V37.202H104.314ZM115.251 41.64C114.719 41.64 114.225 41.57 113.767 41.43C113.319 41.29 112.909 41.08 112.535 40.8C112.171 40.5107 111.845 40.156 111.555 39.736L112.591 38.546C113.049 39.1993 113.487 39.652 113.907 39.904C114.327 40.156 114.827 40.282 115.405 40.282C115.76 40.282 116.082 40.226 116.371 40.114C116.661 40.002 116.889 39.848 117.057 39.652C117.225 39.456 117.309 39.232 117.309 38.98C117.309 38.812 117.281 38.6533 117.225 38.504C117.169 38.3547 117.081 38.2193 116.959 38.098C116.847 37.9767 116.698 37.8647 116.511 37.762C116.334 37.6593 116.124 37.5707 115.881 37.496C115.639 37.412 115.359 37.342 115.041 37.286C114.537 37.1833 114.099 37.048 113.725 36.88C113.352 36.712 113.039 36.502 112.787 36.25C112.535 35.998 112.349 35.7133 112.227 35.396C112.106 35.0693 112.045 34.7053 112.045 34.304C112.045 33.912 112.129 33.548 112.297 33.212C112.475 32.876 112.713 32.5867 113.011 32.344C113.319 32.092 113.679 31.9007 114.089 31.77C114.5 31.63 114.943 31.56 115.419 31.56C115.923 31.56 116.385 31.6253 116.805 31.756C117.225 31.8867 117.599 32.0827 117.925 32.344C118.252 32.596 118.523 32.9087 118.737 33.282L117.673 34.332C117.487 34.024 117.277 33.7673 117.043 33.562C116.81 33.3473 116.553 33.1887 116.273 33.086C115.993 32.974 115.695 32.918 115.377 32.918C115.013 32.918 114.696 32.974 114.425 33.086C114.155 33.198 113.94 33.3567 113.781 33.562C113.632 33.758 113.557 33.9913 113.557 34.262C113.557 34.458 113.595 34.64 113.669 34.808C113.744 34.9667 113.856 35.1113 114.005 35.242C114.164 35.3633 114.374 35.4753 114.635 35.578C114.897 35.6713 115.209 35.7553 115.573 35.83C116.087 35.942 116.544 36.0867 116.945 36.264C117.347 36.432 117.687 36.6327 117.967 36.866C118.247 37.0993 118.457 37.3607 118.597 37.65C118.747 37.9393 118.821 38.252 118.821 38.588C118.821 39.2133 118.677 39.7547 118.387 40.212C118.098 40.6693 117.687 41.024 117.155 41.276C116.623 41.5187 115.989 41.64 115.251 41.64Z" fill="#1F2533"/>
</svg>
