<svg width="163" height="72" viewBox="0 0 163 72" fill="none" xmlns="http://www.w3.org/2000/svg">
<rect x="1" y="1" width="161" height="70" rx="7" stroke="#EFEFEF" stroke-width="2"/>
<path d="M25.0071 32.2447C24.4238 32.5924 23.8133 32.8007 23.1638 32.8703C22.7263 32.9195 22.3101 32.8688 21.962 32.7339C21.3913 32.5075 20.9679 32.1 20.7073 31.527C20.6471 31.3948 20.643 31.2417 20.7021 31.1006C20.944 30.5144 21.3524 30.1029 21.9217 29.8569C22.2633 29.7094 22.6834 29.6519 23.1199 29.6843C24.022 29.7566 24.8482 30.0983 25.6434 30.7013L26.0745 30.6934C26.1645 30.3222 26.3599 29.9817 26.634 29.7L26.4095 29.3234C25.4742 28.9657 24.7494 28.4391 24.2206 27.7085C23.9593 27.3538 23.7944 26.9727 23.7405 26.6002C23.6496 25.9883 23.7925 25.4238 24.1599 24.9122C24.2446 24.7932 24.3778 24.7138 24.5227 24.6959C25.1475 24.6161 25.712 24.759 26.207 25.13C26.509 25.3546 26.7658 25.6809 26.9535 26.0795C27.34 26.8949 27.4585 27.783 27.3281 28.7758L27.5526 29.1524C27.928 29.0407 28.3233 29.0354 28.6926 29.1328L28.9046 28.7574C28.7497 27.7665 28.8422 26.8773 29.2059 26.0566C29.3822 25.6527 29.6308 25.3178 29.9277 25.0848C30.4102 24.7038 30.971 24.5376 31.6018 24.6036C31.7466 24.6169 31.8794 24.6934 31.9744 24.811C32.359 25.3101 32.5161 25.8764 32.4391 26.4887C32.3922 26.8591 32.2388 27.2493 31.9874 27.6108C31.6172 28.149 31.1436 28.5869 30.5603 28.9346C30.3352 29.0688 30.0919 29.1827 29.8385 29.2902L29.6265 29.6656C29.7609 29.7971 29.8889 29.9387 29.9902 30.1086C30.0915 30.2786 30.1551 30.4585 30.2069 30.6393L30.6453 30.6332C31.4211 30.0027 32.2383 29.6401 33.1401 29.5446C33.5776 29.4954 33.9938 29.5461 34.3419 29.681C34.9126 29.9074 35.336 30.3148 35.5966 30.8878C35.6568 31.0201 35.6563 31.176 35.6018 31.3143C35.4023 31.7943 35.0913 32.1602 34.6733 32.4093C34.5815 32.4641 34.4869 32.5142 34.3868 32.5552C34.0452 32.7028 33.6296 32.7575 33.1886 32.7278C32.2864 32.6555 31.4602 32.3138 30.6697 31.7081L30.2386 31.716C30.1504 32.0798 29.955 32.4204 29.6855 32.6994C29.7649 32.8326 29.8489 32.963 29.9283 33.0962C30.8471 33.4575 31.5618 33.9777 32.0898 34.6963C32.351 35.0511 32.5159 35.4321 32.5699 35.8046C32.6266 36.1817 32.5833 36.5374 32.4622 36.8773C32.8577 37.4259 33.256 37.9479 33.6453 38.4443C33.6904 38.0501 33.8062 37.6698 34.0044 37.3026C34.4304 36.5134 35.1528 35.9395 36.0863 35.657C36.8132 35.4354 37.5727 35.3936 38.3289 35.5342C38.5186 35.5705 38.6796 35.7049 38.7414 35.8922C38.8032 36.0794 38.7559 36.282 38.6225 36.4237C38.249 36.8206 37.7747 37.5391 37.669 38.2496C37.5044 39.3624 36.8908 40.0145 36.2064 40.4224C35.9997 40.5456 35.7931 40.6377 35.5838 40.7251C37.2714 42.5329 38.8233 43.7369 40.125 44.2185C40.4035 44.3201 40.5438 44.6287 40.4421 44.9072C40.3959 45.0281 40.3141 45.1205 40.213 45.1807C40.0798 45.2601 39.911 45.2798 39.7534 45.2243C38.8163 44.874 37.8543 44.2522 36.9092 43.4709L36.8311 43.5175C36.4478 43.8456 36.0148 44.1846 35.5372 44.4693C34.6369 45.0059 33.5647 45.3586 32.3256 45.1075C31.4421 44.9307 30.2556 45.1647 29.5093 45.4166C29.3037 45.4894 29.0783 45.4245 28.9394 45.2646C28.8004 45.1046 28.7663 44.8697 28.8622 44.6756C29.2727 43.8395 29.8637 43.0764 30.6203 42.4137C31.5682 41.581 32.6482 41.0742 33.7417 40.9454C33.9343 40.9239 34.1205 40.9125 34.3076 40.9131C34.2893 40.8928 34.2683 40.868 34.25 40.8478C33.3368 39.8171 32.4917 38.7335 31.7472 37.7143C31.1363 37.7859 30.5837 37.6421 30.106 37.2794C29.8041 37.0548 29.5473 36.7285 29.3596 36.33C28.9731 35.5145 28.8546 34.6264 28.9804 33.6364L28.7558 33.2597C28.3804 33.3714 27.9852 33.3767 27.6159 33.2794L27.4039 33.6547C27.5587 34.6456 27.4663 35.5349 27.1026 36.3555C26.9263 36.7594 26.6777 37.0944 26.3808 37.3274C26.2972 37.3959 26.208 37.4552 26.1162 37.51C25.6982 37.7591 25.2238 37.8614 24.7113 37.8058C24.5637 37.788 24.4337 37.7161 24.3387 37.5984C23.954 37.0993 23.797 36.533 23.874 35.9207C23.9209 35.5503 24.0743 35.1601 24.3257 34.7986C24.8414 34.0554 25.5491 33.5091 26.47 33.122L26.6839 32.7393C26.5495 32.6077 26.4215 32.4661 26.3202 32.2962C26.2189 32.1262 26.1552 31.9463 26.1035 31.7655L25.6724 31.7734C25.4481 31.9507 25.2322 32.1106 25.0071 32.2447ZM23.0333 30.7506C22.7656 30.7297 22.528 30.7592 22.3398 30.8403C22.1047 30.9368 21.931 31.084 21.8002 31.2927C21.9353 31.4985 22.1183 31.6384 22.3555 31.7336C22.5433 31.8084 22.7826 31.8338 23.0514 31.8044C23.5963 31.7472 24.0911 31.5644 24.5744 31.2576C24.0773 30.9563 23.5761 30.7944 23.0333 30.7506ZM31.0987 27.0076C31.2525 26.7852 31.3439 26.5626 31.3674 26.3618C31.3993 26.1125 31.356 25.8831 31.2438 25.6636C30.998 25.6794 30.7859 25.7622 30.5892 25.9231C30.4329 26.0473 30.2893 26.245 30.1804 26.4905C29.9607 26.9887 29.8647 27.5066 29.8906 28.0826C30.3976 27.8052 30.7911 27.4524 31.0987 27.0076ZM33.2632 31.6624C33.5309 31.6834 33.7686 31.6538 33.9568 31.5727C34.1891 31.4716 34.3674 31.3217 34.4964 31.1203C34.3613 30.9145 34.1783 30.7746 33.9438 30.6841C33.756 30.6092 33.5167 30.5838 33.2479 30.6133C32.703 30.6704 32.2128 30.8505 31.7249 31.16C32.2193 31.4567 32.7205 31.6187 33.2632 31.6624ZM36.6121 38.0952C36.6953 37.5351 36.9307 36.9901 37.2108 36.5306C36.9366 36.5509 36.6668 36.5996 36.3924 36.6823C35.9353 36.824 35.3034 37.1322 34.9365 37.8116C34.7217 38.2135 34.5043 38.8411 34.9233 39.8364C35.9991 39.469 36.4802 38.9706 36.6121 38.0952ZM25.1979 35.4054C25.0441 35.6278 24.9527 35.8504 24.9291 36.0512C24.9 36.3051 24.936 36.5327 25.0528 36.7494C25.2986 36.7336 25.5107 36.6508 25.7074 36.49C25.8636 36.3657 26.0073 36.168 26.1162 35.9226C26.3359 35.4243 26.4318 34.9065 26.406 34.3305C25.899 34.6078 25.5055 34.9606 25.1979 35.4054ZM25.5635 25.9929C25.3604 25.8401 25.146 25.7624 24.8984 25.7544C24.7923 25.9732 24.7587 26.1987 24.7918 26.4529C24.8234 26.652 24.9236 26.8723 25.0789 27.091C25.4041 27.5322 25.8011 27.8745 26.312 28.1364C26.322 27.5578 26.2143 27.043 25.9791 26.5544C25.8698 26.3083 25.7236 26.1153 25.5635 25.9929ZM33.8633 42.0058C32.9863 42.1115 32.1038 42.5317 31.3177 43.2181C31.0116 43.4878 30.7375 43.7695 30.4963 44.0751C31.1716 43.9651 31.9007 43.9351 32.5359 44.0608C33.6678 44.2887 34.73 43.8984 36.0749 42.7605C35.5027 42.1243 34.8045 41.893 33.8633 42.0058ZM30.7331 36.4201C30.9362 36.573 31.1506 36.6506 31.3981 36.6587C31.5042 36.4398 31.5425 36.2116 31.5047 35.9602C31.4732 35.7611 31.373 35.5407 31.2177 35.322C30.8925 34.8809 30.4955 34.5386 29.9845 34.2766C29.9746 34.8553 30.0822 35.3701 30.3174 35.8586C30.4268 36.1047 30.5729 36.2977 30.7331 36.4201ZM28.6959 32.1252C29.2011 31.824 29.3681 31.1642 29.0669 30.6589C28.7658 30.1537 28.106 29.9867 27.6007 30.2879C27.0954 30.589 26.9285 31.2488 27.2296 31.7541C27.5308 32.2593 28.1906 32.4263 28.6959 32.1252Z" fill="#359740"/>
<path d="M65.6581 41.5V31.7H67.1701V41.5H65.6581ZM66.3301 37.328V35.872H71.3841V37.328H66.3301ZM66.3301 33.156V31.7H72.0141V33.156H66.3301ZM74.08 41.5V31.7H75.592V40.044H80.184V41.5H74.08ZM86.2894 41.64C85.5988 41.64 84.9594 41.514 84.3714 41.262C83.7928 41.01 83.2841 40.66 82.8454 40.212C82.4161 39.7547 82.0801 39.2227 81.8374 38.616C81.6041 38 81.4874 37.328 81.4874 36.6C81.4874 35.872 81.6041 35.2047 81.8374 34.598C82.0801 33.982 82.4161 33.45 82.8454 33.002C83.2841 32.5447 83.7928 32.19 84.3714 31.938C84.9594 31.686 85.5988 31.56 86.2894 31.56C86.9801 31.56 87.6148 31.686 88.1934 31.938C88.7814 32.19 89.2901 32.5447 89.7194 33.002C90.1581 33.4593 90.4941 33.996 90.7274 34.612C90.9701 35.2187 91.0914 35.8813 91.0914 36.6C91.0914 37.3187 90.9701 37.986 90.7274 38.602C90.4941 39.2087 90.1581 39.7407 89.7194 40.198C89.2901 40.6553 88.7814 41.01 88.1934 41.262C87.6148 41.514 86.9801 41.64 86.2894 41.64ZM86.2894 40.17C86.7654 40.17 87.1994 40.0813 87.5914 39.904C87.9928 39.7267 88.3381 39.4793 88.6274 39.162C88.9168 38.8353 89.1408 38.4573 89.2994 38.028C89.4674 37.5893 89.5514 37.1133 89.5514 36.6C89.5514 36.0867 89.4674 35.6153 89.2994 35.186C89.1408 34.7473 88.9168 34.3693 88.6274 34.052C88.3381 33.7253 87.9928 33.4733 87.5914 33.296C87.1994 33.1187 86.7654 33.03 86.2894 33.03C85.8134 33.03 85.3748 33.1187 84.9734 33.296C84.5814 33.4733 84.2361 33.7207 83.9374 34.038C83.6481 34.3553 83.4241 34.7333 83.2654 35.172C83.1068 35.6013 83.0274 36.0773 83.0274 36.6C83.0274 37.1133 83.1068 37.5893 83.2654 38.028C83.4241 38.4667 83.6481 38.8447 83.9374 39.162C84.2361 39.4793 84.5814 39.7267 84.9734 39.904C85.3748 40.0813 85.8134 40.17 86.2894 40.17ZM95.1562 41.5L92.0342 31.7H93.6442L95.5342 37.832C95.5902 37.9813 95.6416 38.1587 95.6882 38.364C95.7349 38.56 95.7769 38.7607 95.8142 38.966C95.8516 39.1713 95.8842 39.3627 95.9122 39.54C95.9496 39.7173 95.9822 39.862 96.0102 39.974L95.6042 39.96C95.7442 39.4653 95.8516 39.0827 95.9262 38.812C96.0102 38.5413 96.0756 38.336 96.1222 38.196C96.1689 38.0467 96.2109 37.9207 96.2482 37.818L98.0122 33.394H99.3702L101.078 37.818C101.172 38.042 101.251 38.266 101.316 38.49C101.391 38.7047 101.456 38.924 101.512 39.148C101.568 39.3627 101.629 39.5913 101.694 39.834L101.33 39.932C101.377 39.68 101.41 39.484 101.428 39.344C101.456 39.1947 101.48 39.0733 101.498 38.98C101.517 38.8867 101.536 38.798 101.554 38.714C101.573 38.6207 101.601 38.504 101.638 38.364C101.685 38.224 101.746 38.0327 101.82 37.79L103.682 31.7H105.306L102.184 41.5H101.134L98.5442 35.368L98.6702 35.424L96.1782 41.5H95.1562ZM107.016 41.5V31.7H113.19V33.156H108.528V40.044H113.19V41.5H107.016ZM107.702 37.202V35.746H112.42V37.202H107.702ZM115.615 41.5V31.7H119.787C120.347 31.7 120.86 31.84 121.327 32.12C121.803 32.3907 122.181 32.764 122.461 33.24C122.741 33.7067 122.881 34.234 122.881 34.822C122.881 35.354 122.741 35.8487 122.461 36.306C122.181 36.7633 121.808 37.132 121.341 37.412C120.874 37.6827 120.356 37.818 119.787 37.818H117.127V41.5H115.615ZM121.439 41.5L118.947 37.076L120.501 36.726L123.273 41.514L121.439 41.5ZM117.127 36.362H119.927C120.198 36.362 120.44 36.2967 120.655 36.166C120.87 36.026 121.038 35.8393 121.159 35.606C121.28 35.3633 121.341 35.0973 121.341 34.808C121.341 34.4813 121.262 34.1967 121.103 33.954C120.954 33.702 120.739 33.506 120.459 33.366C120.188 33.226 119.88 33.156 119.535 33.156H117.127V36.362ZM128.374 41.64C127.842 41.64 127.347 41.57 126.89 41.43C126.442 41.29 126.031 41.08 125.658 40.8C125.294 40.5107 124.967 40.156 124.678 39.736L125.714 38.546C126.171 39.1993 126.61 39.652 127.03 39.904C127.45 40.156 127.949 40.282 128.528 40.282C128.882 40.282 129.204 40.226 129.494 40.114C129.783 40.002 130.012 39.848 130.18 39.652C130.348 39.456 130.432 39.232 130.432 38.98C130.432 38.812 130.404 38.6533 130.348 38.504C130.292 38.3547 130.203 38.2193 130.082 38.098C129.97 37.9767 129.82 37.8647 129.634 37.762C129.456 37.6593 129.246 37.5707 129.004 37.496C128.761 37.412 128.481 37.342 128.164 37.286C127.66 37.1833 127.221 37.048 126.848 36.88C126.474 36.712 126.162 36.502 125.91 36.25C125.658 35.998 125.471 35.7133 125.35 35.396C125.228 35.0693 125.168 34.7053 125.168 34.304C125.168 33.912 125.252 33.548 125.42 33.212C125.597 32.876 125.835 32.5867 126.134 32.344C126.442 32.092 126.801 31.9007 127.212 31.77C127.622 31.63 128.066 31.56 128.542 31.56C129.046 31.56 129.508 31.6253 129.928 31.756C130.348 31.8867 130.721 32.0827 131.048 32.344C131.374 32.596 131.645 32.9087 131.86 33.282L130.796 34.332C130.609 34.024 130.399 33.7673 130.166 33.562C129.932 33.3473 129.676 33.1887 129.396 33.086C129.116 32.974 128.817 32.918 128.5 32.918C128.136 32.918 127.818 32.974 127.548 33.086C127.277 33.198 127.062 33.3567 126.904 33.562C126.754 33.758 126.68 33.9913 126.68 34.262C126.68 34.458 126.717 34.64 126.792 34.808C126.866 34.9667 126.978 35.1113 127.128 35.242C127.286 35.3633 127.496 35.4753 127.758 35.578C128.019 35.6713 128.332 35.7553 128.696 35.83C129.209 35.942 129.666 36.0867 130.068 36.264C130.469 36.432 130.81 36.6327 131.09 36.866C131.37 37.0993 131.58 37.3607 131.72 37.65C131.869 37.9393 131.944 38.252 131.944 38.588C131.944 39.2133 131.799 39.7547 131.51 40.212C131.22 40.6693 130.81 41.024 130.278 41.276C129.746 41.5187 129.111 41.64 128.374 41.64Z" fill="#1F2533"/>
</svg>
