<svg width="157" height="72" viewBox="0 0 157 72" fill="none" xmlns="http://www.w3.org/2000/svg">
<rect x="1" y="1" width="155" height="70" rx="7" stroke="#EFEFEF" stroke-width="2"/>
<path d="M26.2524 27.1243L24.7285 25.715C24.4201 25.4283 23.9369 25.4283 23.6285 25.715L22.1041 27.1243C21.4047 27.7743 21 28.6828 21 29.6339V35.6289C21 36.1037 21.3996 36.5115 21.8779 36.5115H23.6648V38.0827C23.267 38.2732 22.9489 38.6883 22.9489 39.1701V42.3146C22.9489 42.9765 23.5069 43.5 24.1737 43.5H24.1758C24.8426 43.5 25.375 42.9765 25.375 42.3146V39.1701C25.375 38.6883 25.0966 38.2732 24.6989 38.0827V36.5018V33.9885C24.6989 33.7968 24.8412 33.6687 25.0344 33.6687H25.0349C25.2281 33.6687 25.375 33.7968 25.375 33.9885V36.5115H26.4678C26.9461 36.5115 27.3636 36.1037 27.3636 35.6289V29.6339C27.3636 28.6828 26.9518 27.7743 26.2524 27.1243ZM34.4917 25.93H34.4507C34.1565 25.93 33.9261 26.1471 33.9261 26.4392V29.2058C33.9261 29.6103 33.5836 29.9573 33.1762 29.9573H33.1742C32.7667 29.9573 32.4148 29.6103 32.4148 29.2058V26.4392C32.4148 26.1471 32.2 25.93 31.9057 25.93H31.9037C31.6094 25.93 31.3807 26.1471 31.3807 26.4392V29.2058C31.3807 29.6103 31.0426 29.9573 30.6352 29.9573H30.6332C30.2258 29.9573 29.9091 29.6103 29.9091 29.2058V26.4392C29.9091 26.1471 29.659 25.93 29.3647 25.93H29.3627C29.0685 25.93 28.8352 26.1471 28.8352 26.4392V35.5868C28.8352 36.0848 29.2427 36.5115 29.7443 36.5115H31.4205V38.0827C30.983 38.2732 30.7045 38.6883 30.7045 39.1701V42.3146C30.7045 42.9765 31.2585 43.5 31.9254 43.5H31.9246C32.5914 43.5 33.1307 42.9765 33.1307 42.3146V39.1701C33.1307 38.6883 32.8523 38.2732 32.4148 38.0827V33.9402C32.4943 33.7714 32.5943 33.6413 32.7709 33.6413C32.964 33.6413 33.1307 33.7968 33.1307 33.9885V36.5115H34.1162C34.6179 36.5115 35 36.0848 35 35.5868V26.4392C35 26.1471 34.786 25.93 34.4917 25.93Z" fill="#359740"/>
<path d="M60.772 40.14C60.24 40.14 59.7453 40.07 59.288 39.93C58.84 39.79 58.4293 39.58 58.056 39.3C57.692 39.0107 57.3653 38.656 57.076 38.236L58.112 37.046C58.5693 37.6993 59.008 38.152 59.428 38.404C59.848 38.656 60.3473 38.782 60.926 38.782C61.2806 38.782 61.6026 38.726 61.892 38.614C62.1813 38.502 62.41 38.348 62.578 38.152C62.746 37.956 62.83 37.732 62.83 37.48C62.83 37.312 62.802 37.1533 62.746 37.004C62.69 36.8547 62.6013 36.7193 62.48 36.598C62.368 36.4767 62.2186 36.3647 62.032 36.262C61.8546 36.1593 61.6446 36.0707 61.402 35.996C61.1593 35.912 60.8793 35.842 60.562 35.786C60.058 35.6833 59.6193 35.548 59.246 35.38C58.8726 35.212 58.56 35.002 58.308 34.75C58.056 34.498 57.8693 34.2133 57.748 33.896C57.6266 33.5693 57.566 33.2053 57.566 32.804C57.566 32.412 57.65 32.048 57.818 31.712C57.9953 31.376 58.2333 31.0867 58.532 30.844C58.84 30.592 59.1993 30.4007 59.61 30.27C60.0206 30.13 60.464 30.06 60.94 30.06C61.444 30.06 61.906 30.1253 62.326 30.256C62.746 30.3867 63.1193 30.5827 63.446 30.844C63.7726 31.096 64.0433 31.4087 64.258 31.782L63.194 32.832C63.0073 32.524 62.7973 32.2673 62.564 32.062C62.3306 31.8473 62.074 31.6887 61.794 31.586C61.514 31.474 61.2153 31.418 60.898 31.418C60.534 31.418 60.2166 31.474 59.946 31.586C59.6753 31.698 59.4606 31.8567 59.302 32.062C59.1526 32.258 59.078 32.4913 59.078 32.762C59.078 32.958 59.1153 33.14 59.19 33.308C59.2646 33.4667 59.3766 33.6113 59.526 33.742C59.6846 33.8633 59.8946 33.9753 60.156 34.078C60.4173 34.1713 60.73 34.2553 61.094 34.33C61.6073 34.442 62.0646 34.5867 62.466 34.764C62.8673 34.932 63.208 35.1327 63.488 35.366C63.768 35.5993 63.978 35.8607 64.118 36.15C64.2673 36.4393 64.342 36.752 64.342 37.088C64.342 37.7133 64.1973 38.2547 63.908 38.712C63.6186 39.1693 63.208 39.524 62.676 39.776C62.144 40.0187 61.5093 40.14 60.772 40.14ZM70.2923 40.084C69.5363 40.084 68.8596 39.9207 68.2623 39.594C67.665 39.258 67.1936 38.8007 66.8483 38.222C66.5123 37.634 66.3443 36.9713 66.3443 36.234V30.186H67.8563V36.108C67.8563 36.584 67.9683 37.0133 68.1923 37.396C68.4163 37.7693 68.7103 38.068 69.0743 38.292C69.4476 38.516 69.8536 38.628 70.2923 38.628C70.759 38.628 71.179 38.516 71.5523 38.292C71.935 38.068 72.2383 37.7693 72.4623 37.396C72.6863 37.0133 72.7983 36.584 72.7983 36.108V30.186H74.2403V36.234C74.2403 36.9713 74.0676 37.634 73.7223 38.222C73.3863 38.8007 72.9196 39.258 72.3223 39.594C71.725 39.9207 71.0483 40.084 70.2923 40.084ZM76.8476 40V30.2H80.8376C81.3696 30.2 81.8503 30.3353 82.2796 30.606C82.7183 30.8673 83.0683 31.2267 83.3296 31.684C83.5909 32.1413 83.7216 32.65 83.7216 33.21C83.7216 33.77 83.5909 34.2787 83.3296 34.736C83.0683 35.1933 82.7183 35.562 82.2796 35.842C81.8503 36.1127 81.3696 36.248 80.8376 36.248H78.3596V40H76.8476ZM78.3596 34.792H80.8096C81.0616 34.792 81.2903 34.722 81.4956 34.582C81.7009 34.4327 81.8643 34.2413 81.9856 34.008C82.1163 33.7653 82.1816 33.4993 82.1816 33.21C82.1816 32.9207 82.1163 32.6593 81.9856 32.426C81.8643 32.1927 81.7009 32.006 81.4956 31.866C81.2903 31.726 81.0616 31.656 80.8096 31.656H78.3596V34.792ZM85.7206 40V30.2H89.7106C90.2426 30.2 90.7233 30.3353 91.1526 30.606C91.5913 30.8673 91.9413 31.2267 92.2026 31.684C92.464 32.1413 92.5946 32.65 92.5946 33.21C92.5946 33.77 92.464 34.2787 92.2026 34.736C91.9413 35.1933 91.5913 35.562 91.1526 35.842C90.7233 36.1127 90.2426 36.248 89.7106 36.248H87.2326V40H85.7206ZM87.2326 34.792H89.6826C89.9346 34.792 90.1633 34.722 90.3686 34.582C90.574 34.4327 90.7373 34.2413 90.8586 34.008C90.9893 33.7653 91.0546 33.4993 91.0546 33.21C91.0546 32.9207 90.9893 32.6593 90.8586 32.426C90.7373 32.1927 90.574 32.006 90.3686 31.866C90.1633 31.726 89.9346 31.656 89.6826 31.656H87.2326V34.792ZM94.5937 40V30.2H96.1057V38.544H100.698V40H94.5937ZM102.611 40V38.6H104.193V31.6H102.611V30.2H107.287V31.6H105.705V38.6H107.287V40H102.611ZM109.66 40V30.2H115.834V31.656H111.172V38.544H115.834V40H109.66ZM110.346 35.702V34.246H115.064V35.702H110.346ZM121.284 40.14C120.752 40.14 120.257 40.07 119.8 39.93C119.352 39.79 118.941 39.58 118.568 39.3C118.204 39.0107 117.877 38.656 117.588 38.236L118.624 37.046C119.081 37.6993 119.52 38.152 119.94 38.404C120.36 38.656 120.859 38.782 121.438 38.782C121.792 38.782 122.114 38.726 122.404 38.614C122.693 38.502 122.922 38.348 123.09 38.152C123.258 37.956 123.342 37.732 123.342 37.48C123.342 37.312 123.314 37.1533 123.258 37.004C123.202 36.8547 123.113 36.7193 122.992 36.598C122.88 36.4767 122.73 36.3647 122.544 36.262C122.366 36.1593 122.156 36.0707 121.914 35.996C121.671 35.912 121.391 35.842 121.074 35.786C120.57 35.6833 120.131 35.548 119.758 35.38C119.384 35.212 119.072 35.002 118.82 34.75C118.568 34.498 118.381 34.2133 118.26 33.896C118.138 33.5693 118.078 33.2053 118.078 32.804C118.078 32.412 118.162 32.048 118.33 31.712C118.507 31.376 118.745 31.0867 119.044 30.844C119.352 30.592 119.711 30.4007 120.122 30.27C120.532 30.13 120.976 30.06 121.452 30.06C121.956 30.06 122.418 30.1253 122.838 30.256C123.258 30.3867 123.631 30.5827 123.958 30.844C124.284 31.096 124.555 31.4087 124.77 31.782L123.706 32.832C123.519 32.524 123.309 32.2673 123.076 32.062C122.842 31.8473 122.586 31.6887 122.306 31.586C122.026 31.474 121.727 31.418 121.41 31.418C121.046 31.418 120.728 31.474 120.458 31.586C120.187 31.698 119.972 31.8567 119.814 32.062C119.664 32.258 119.59 32.4913 119.59 32.762C119.59 32.958 119.627 33.14 119.702 33.308C119.776 33.4667 119.888 33.6113 120.038 33.742C120.196 33.8633 120.406 33.9753 120.668 34.078C120.929 34.1713 121.242 34.2553 121.606 34.33C122.119 34.442 122.576 34.5867 122.978 34.764C123.379 34.932 123.72 35.1327 124 35.366C124.28 35.5993 124.49 35.8607 124.63 36.15C124.779 36.4393 124.854 36.752 124.854 37.088C124.854 37.7133 124.709 38.2547 124.42 38.712C124.13 39.1693 123.72 39.524 123.188 39.776C122.656 40.0187 122.021 40.14 121.284 40.14Z" fill="#1F2533"/>
</svg>
