<svg width="296" height="51" viewBox="0 0 296 51" fill="none" xmlns="http://www.w3.org/2000/svg">
<rect width="153" height="51" rx="8" fill="#359740"/>
<path d="M33.256 32L37.624 20.8H39.576L43.912 32H41.752L39.352 25.632C39.2987 25.504 39.224 25.3013 39.128 25.024C39.0427 24.7467 38.9467 24.448 38.84 24.128C38.7333 23.7973 38.6373 23.4933 38.552 23.216C38.4667 22.928 38.4027 22.72 38.36 22.592L38.76 22.576C38.696 22.7893 38.6213 23.0293 38.536 23.296C38.4507 23.5627 38.36 23.84 38.264 24.128C38.168 24.416 38.072 24.6933 37.976 24.96C37.8907 25.2267 37.8107 25.4667 37.736 25.68L35.336 32H33.256ZM35.24 29.44L35.96 27.632H41.064L41.832 29.44H35.24ZM47.8434 32.16C47.0967 32.16 46.4247 31.9733 45.8274 31.6C45.2407 31.216 44.7714 30.6987 44.4194 30.048C44.078 29.3867 43.9074 28.6293 43.9074 27.776C43.9074 26.9333 44.078 26.1813 44.4194 25.52C44.7607 24.8587 45.2247 24.3413 45.8114 23.968C46.4087 23.584 47.0807 23.392 47.8274 23.392C48.2327 23.392 48.622 23.456 48.9954 23.584C49.3794 23.712 49.7207 23.888 50.0194 24.112C50.318 24.3253 50.5527 24.5653 50.7234 24.832C50.9047 25.0987 51.006 25.376 51.0274 25.664L50.4994 25.728V20.16H52.4674V32H50.5634L50.5154 30.016L50.8994 30.048C50.8887 30.3147 50.7927 30.5707 50.6114 30.816C50.4407 31.0613 50.2167 31.2853 49.9394 31.488C49.662 31.6907 49.3367 31.856 48.9634 31.984C48.6007 32.1013 48.2274 32.16 47.8434 32.16ZM48.2274 30.496C48.686 30.496 49.0914 30.3787 49.4434 30.144C49.7954 29.9093 50.0674 29.5893 50.2594 29.184C50.462 28.7787 50.5634 28.3093 50.5634 27.776C50.5634 27.2533 50.462 26.7893 50.2594 26.384C50.0674 25.968 49.7954 25.648 49.4434 25.424C49.0914 25.1893 48.686 25.072 48.2274 25.072C47.7687 25.072 47.3634 25.1893 47.0114 25.424C46.6594 25.648 46.382 25.968 46.1794 26.384C45.9874 26.7893 45.8914 27.2533 45.8914 27.776C45.8914 28.3093 45.9874 28.7787 46.1794 29.184C46.382 29.5893 46.6594 29.9093 47.0114 30.144C47.3634 30.3787 47.7687 30.496 48.2274 30.496ZM57.5334 32.16C56.7867 32.16 56.1147 31.9733 55.5174 31.6C54.9307 31.216 54.4614 30.6987 54.1094 30.048C53.768 29.3867 53.5974 28.6293 53.5974 27.776C53.5974 26.9333 53.768 26.1813 54.1094 25.52C54.4507 24.8587 54.9147 24.3413 55.5014 23.968C56.0987 23.584 56.7707 23.392 57.5174 23.392C57.9227 23.392 58.312 23.456 58.6854 23.584C59.0694 23.712 59.4107 23.888 59.7094 24.112C60.008 24.3253 60.2427 24.5653 60.4134 24.832C60.5947 25.0987 60.696 25.376 60.7174 25.664L60.1894 25.728V20.16H62.1574V32H60.2534L60.2054 30.016L60.5894 30.048C60.5787 30.3147 60.4827 30.5707 60.3014 30.816C60.1307 31.0613 59.9067 31.2853 59.6294 31.488C59.352 31.6907 59.0267 31.856 58.6534 31.984C58.2907 32.1013 57.9174 32.16 57.5334 32.16ZM57.9174 30.496C58.376 30.496 58.7814 30.3787 59.1334 30.144C59.4854 29.9093 59.7574 29.5893 59.9494 29.184C60.152 28.7787 60.2534 28.3093 60.2534 27.776C60.2534 27.2533 60.152 26.7893 59.9494 26.384C59.7574 25.968 59.4854 25.648 59.1334 25.424C58.7814 25.1893 58.376 25.072 57.9174 25.072C57.4587 25.072 57.0534 25.1893 56.7014 25.424C56.3494 25.648 56.072 25.968 55.8694 26.384C55.6774 26.7893 55.5814 27.2533 55.5814 27.776C55.5814 28.3093 55.6774 28.7787 55.8694 29.184C56.072 29.5893 56.3494 29.9093 56.7014 30.144C57.0534 30.3787 57.4587 30.496 57.9174 30.496ZM68.8865 32V21.424H70.8545V32H68.8865ZM67.2225 25.392V23.568H72.6945V25.392H67.2225ZM77.4111 32.16C76.5685 32.16 75.8165 31.9733 75.1551 31.6C74.4938 31.216 73.9711 30.6933 73.5871 30.032C73.2031 29.3707 73.0111 28.6187 73.0111 27.776C73.0111 26.9333 73.2031 26.1813 73.5871 25.52C73.9711 24.8587 74.4938 24.3413 75.1551 23.968C75.8165 23.584 76.5685 23.392 77.4111 23.392C78.2431 23.392 78.9898 23.584 79.6511 23.968C80.3125 24.3413 80.8298 24.8587 81.2031 25.52C81.5871 26.1813 81.7791 26.9333 81.7791 27.776C81.7791 28.6187 81.5871 29.3707 81.2031 30.032C80.8298 30.6933 80.3125 31.216 79.6511 31.6C78.9898 31.9733 78.2431 32.16 77.4111 32.16ZM77.4111 30.416C77.8698 30.416 78.2751 30.2987 78.6271 30.064C78.9898 29.8293 79.2725 29.5147 79.4751 29.12C79.6885 28.7253 79.7898 28.2773 79.7791 27.776C79.7898 27.264 79.6885 26.8107 79.4751 26.416C79.2725 26.0213 78.9898 25.712 78.6271 25.488C78.2751 25.2533 77.8698 25.136 77.4111 25.136C76.9525 25.136 76.5365 25.2533 76.1631 25.488C75.8005 25.712 75.5178 26.0267 75.3151 26.432C75.1125 26.8267 75.0111 27.2747 75.0111 27.776C75.0111 28.2773 75.1125 28.7253 75.3151 29.12C75.5178 29.5147 75.8005 29.8293 76.1631 30.064C76.5365 30.2987 76.9525 30.416 77.4111 30.416ZM90.7386 32.16C89.9493 32.16 89.24 31.968 88.6106 31.584C87.9813 31.2 87.4853 30.6773 87.1226 30.016C86.76 29.3547 86.5786 28.608 86.5786 27.776C86.5786 26.944 86.76 26.1973 87.1226 25.536C87.4853 24.8747 87.9813 24.352 88.6106 23.968C89.24 23.584 89.9493 23.392 90.7386 23.392C91.496 23.392 92.184 23.536 92.8026 23.824C93.4213 24.112 93.9013 24.512 94.2426 25.024L93.1546 26.336C92.9946 26.112 92.792 25.9093 92.5466 25.728C92.3013 25.5467 92.04 25.4027 91.7626 25.296C91.4853 25.1893 91.208 25.136 90.9306 25.136C90.4613 25.136 90.04 25.2533 89.6666 25.488C89.304 25.712 89.016 26.0267 88.8026 26.432C88.5893 26.8267 88.4826 27.2747 88.4826 27.776C88.4826 28.2773 88.5893 28.7253 88.8026 29.12C89.0266 29.5147 89.3253 29.8293 89.6986 30.064C90.072 30.2987 90.488 30.416 90.9466 30.416C91.224 30.416 91.4906 30.3733 91.7466 30.288C92.0133 30.192 92.264 30.0587 92.4986 29.888C92.7333 29.7173 92.952 29.504 93.1546 29.248L94.2426 30.576C93.88 31.0453 93.3786 31.4293 92.7386 31.728C92.1093 32.016 91.4426 32.16 90.7386 32.16ZM98.3716 32.16C97.6783 32.16 97.049 31.968 96.4836 31.584C95.9183 31.2 95.465 30.6773 95.1236 30.016C94.7823 29.3547 94.6116 28.6027 94.6116 27.76C94.6116 26.9173 94.7823 26.1653 95.1236 25.504C95.465 24.8427 95.929 24.3253 96.5156 23.952C97.1023 23.5787 97.7636 23.392 98.4996 23.392C98.9263 23.392 99.3156 23.456 99.6676 23.584C100.02 23.7013 100.329 23.872 100.596 24.096C100.862 24.32 101.081 24.576 101.252 24.864C101.433 25.152 101.556 25.4613 101.62 25.792L101.188 25.68V23.568H103.172V32H101.172V29.984L101.636 29.904C101.561 30.192 101.422 30.4747 101.22 30.752C101.028 31.0187 100.782 31.2587 100.484 31.472C100.196 31.6747 99.8703 31.84 99.5076 31.968C99.1556 32.096 98.777 32.16 98.3716 32.16ZM98.9156 30.416C99.3743 30.416 99.7796 30.304 100.132 30.08C100.484 29.856 100.756 29.5467 100.948 29.152C101.15 28.7467 101.252 28.2827 101.252 27.76C101.252 27.248 101.15 26.7947 100.948 26.4C100.756 26.0053 100.484 25.696 100.132 25.472C99.7796 25.248 99.3743 25.136 98.9156 25.136C98.457 25.136 98.0516 25.248 97.6996 25.472C97.3583 25.696 97.0916 26.0053 96.8996 26.4C96.7076 26.7947 96.6116 27.248 96.6116 27.76C96.6116 28.2827 96.7076 28.7467 96.8996 29.152C97.0916 29.5467 97.3583 29.856 97.6996 30.08C98.0516 30.304 98.457 30.416 98.9156 30.416ZM104.893 32V23.568H106.829L106.861 26.256L106.589 25.648C106.707 25.2213 106.909 24.8373 107.197 24.496C107.485 24.1547 107.816 23.888 108.189 23.696C108.573 23.4933 108.973 23.392 109.389 23.392C109.571 23.392 109.741 23.408 109.901 23.44C110.072 23.472 110.211 23.5093 110.317 23.552L109.789 25.712C109.672 25.648 109.528 25.5947 109.357 25.552C109.187 25.5093 109.016 25.488 108.845 25.488C108.579 25.488 108.323 25.5413 108.077 25.648C107.843 25.744 107.635 25.8827 107.453 26.064C107.272 26.2453 107.128 26.4587 107.021 26.704C106.925 26.9387 106.877 27.2053 106.877 27.504V32H104.893ZM114.1 32.16C113.354 32.16 112.682 31.9733 112.084 31.6C111.498 31.216 111.028 30.6987 110.676 30.048C110.335 29.3867 110.164 28.6293 110.164 27.776C110.164 26.9333 110.335 26.1813 110.676 25.52C111.018 24.8587 111.482 24.3413 112.068 23.968C112.666 23.584 113.338 23.392 114.084 23.392C114.49 23.392 114.879 23.456 115.252 23.584C115.636 23.712 115.978 23.888 116.276 24.112C116.575 24.3253 116.81 24.5653 116.98 24.832C117.162 25.0987 117.263 25.376 117.284 25.664L116.756 25.728V20.16H118.724V32H116.82L116.772 30.016L117.156 30.048C117.146 30.3147 117.05 30.5707 116.868 30.816C116.698 31.0613 116.474 31.2853 116.196 31.488C115.919 31.6907 115.594 31.856 115.22 31.984C114.858 32.1013 114.484 32.16 114.1 32.16ZM114.484 30.496C114.943 30.496 115.348 30.3787 115.7 30.144C116.052 29.9093 116.324 29.5893 116.516 29.184C116.719 28.7787 116.82 28.3093 116.82 27.776C116.82 27.2533 116.719 26.7893 116.516 26.384C116.324 25.968 116.052 25.648 115.7 25.424C115.348 25.1893 114.943 25.072 114.484 25.072C114.026 25.072 113.62 25.1893 113.268 25.424C112.916 25.648 112.639 25.968 112.436 26.384C112.244 26.7893 112.148 27.2533 112.148 27.776C112.148 28.3093 112.244 28.7787 112.436 29.184C112.639 29.5893 112.916 29.9093 113.268 30.144C113.62 30.3787 114.026 30.496 114.484 30.496Z" fill="white"/>
<rect x="165" width="131" height="51" rx="8" fill="white"/>
<path d="M199.504 32V20.8H204C204.811 20.8 205.541 20.9333 206.192 21.2C206.853 21.4667 207.419 21.8507 207.888 22.352C208.368 22.8533 208.731 23.4453 208.976 24.128C209.232 24.8107 209.36 25.568 209.36 26.4C209.36 27.232 209.232 27.9947 208.976 28.688C208.731 29.3707 208.373 29.9627 207.904 30.464C207.435 30.9547 206.869 31.3333 206.208 31.6C205.547 31.8667 204.811 32 204 32H199.504ZM201.584 30.384L201.424 30.08H203.92C204.443 30.08 204.907 29.9947 205.312 29.824C205.728 29.6533 206.08 29.408 206.368 29.088C206.656 28.768 206.875 28.384 207.024 27.936C207.173 27.4773 207.248 26.9653 207.248 26.4C207.248 25.8347 207.173 25.328 207.024 24.88C206.875 24.4213 206.651 24.032 206.352 23.712C206.064 23.392 205.717 23.1467 205.312 22.976C204.907 22.8053 204.443 22.72 203.92 22.72H201.376L201.584 22.448V30.384ZM210.925 32V23.568H212.893V32H210.925ZM211.885 21.776C211.491 21.776 211.181 21.68 210.957 21.488C210.744 21.2853 210.637 21.0027 210.637 20.64C210.637 20.2987 210.749 20.0213 210.973 19.808C211.197 19.5947 211.501 19.488 211.885 19.488C212.291 19.488 212.6 19.5893 212.813 19.792C213.037 19.984 213.149 20.2667 213.149 20.64C213.149 20.9707 213.037 21.2427 212.813 21.456C212.589 21.6693 212.28 21.776 211.885 21.776ZM217.645 32.16C216.898 32.16 216.226 32.0373 215.629 31.792C215.042 31.536 214.562 31.1733 214.189 30.704L215.469 29.6C215.789 29.9627 216.146 30.224 216.541 30.384C216.936 30.544 217.352 30.624 217.789 30.624C217.97 30.624 218.13 30.6027 218.269 30.56C218.418 30.5173 218.546 30.4533 218.653 30.368C218.76 30.2827 218.84 30.1867 218.893 30.08C218.957 29.9627 218.989 29.8347 218.989 29.696C218.989 29.44 218.893 29.2373 218.701 29.088C218.594 29.0133 218.424 28.9333 218.189 28.848C217.965 28.7627 217.672 28.6773 217.309 28.592C216.733 28.4427 216.253 28.272 215.869 28.08C215.485 27.8773 215.186 27.6533 214.973 27.408C214.792 27.2053 214.653 26.976 214.557 26.72C214.472 26.464 214.429 26.1867 214.429 25.888C214.429 25.5147 214.509 25.1787 214.669 24.88C214.84 24.5707 215.069 24.304 215.357 24.08C215.645 23.856 215.981 23.6853 216.365 23.568C216.749 23.4507 217.149 23.392 217.565 23.392C217.992 23.392 218.402 23.4453 218.797 23.552C219.202 23.6587 219.576 23.8133 219.917 24.016C220.269 24.208 220.568 24.4427 220.813 24.72L219.725 25.92C219.522 25.728 219.298 25.5573 219.053 25.408C218.818 25.2587 218.578 25.1413 218.333 25.056C218.088 24.96 217.858 24.912 217.645 24.912C217.442 24.912 217.261 24.9333 217.101 24.976C216.941 25.008 216.808 25.0613 216.701 25.136C216.594 25.2107 216.509 25.3067 216.445 25.424C216.392 25.5307 216.365 25.6587 216.365 25.808C216.376 25.936 216.408 26.0587 216.461 26.176C216.525 26.2827 216.61 26.3733 216.717 26.448C216.834 26.5227 217.01 26.608 217.245 26.704C217.48 26.8 217.784 26.8907 218.157 26.976C218.68 27.1147 219.117 27.2693 219.469 27.44C219.821 27.6107 220.098 27.808 220.301 28.032C220.504 28.224 220.648 28.448 220.733 28.704C220.818 28.96 220.861 29.2427 220.861 29.552C220.861 30.0533 220.717 30.5013 220.429 30.896C220.152 31.2907 219.768 31.6 219.277 31.824C218.797 32.048 218.253 32.16 217.645 32.16ZM225.65 32.16C224.861 32.16 224.152 31.968 223.522 31.584C222.893 31.2 222.397 30.6773 222.034 30.016C221.672 29.3547 221.49 28.608 221.49 27.776C221.49 26.944 221.672 26.1973 222.034 25.536C222.397 24.8747 222.893 24.352 223.522 23.968C224.152 23.584 224.861 23.392 225.65 23.392C226.408 23.392 227.096 23.536 227.714 23.824C228.333 24.112 228.813 24.512 229.155 25.024L228.067 26.336C227.907 26.112 227.704 25.9093 227.458 25.728C227.213 25.5467 226.952 25.4027 226.674 25.296C226.397 25.1893 226.12 25.136 225.842 25.136C225.373 25.136 224.952 25.2533 224.578 25.488C224.216 25.712 223.928 26.0267 223.714 26.432C223.501 26.8267 223.394 27.2747 223.394 27.776C223.394 28.2773 223.501 28.7253 223.714 29.12C223.938 29.5147 224.237 29.8293 224.61 30.064C224.984 30.2987 225.4 30.416 225.859 30.416C226.136 30.416 226.402 30.3733 226.659 30.288C226.925 30.192 227.176 30.0587 227.411 29.888C227.645 29.7173 227.864 29.504 228.067 29.248L229.155 30.576C228.792 31.0453 228.29 31.4293 227.65 31.728C227.021 32.016 226.354 32.16 225.65 32.16ZM233.956 32.16C233.113 32.16 232.361 31.9733 231.7 31.6C231.038 31.216 230.516 30.6933 230.132 30.032C229.748 29.3707 229.556 28.6187 229.556 27.776C229.556 26.9333 229.748 26.1813 230.132 25.52C230.516 24.8587 231.038 24.3413 231.7 23.968C232.361 23.584 233.113 23.392 233.956 23.392C234.788 23.392 235.534 23.584 236.196 23.968C236.857 24.3413 237.374 24.8587 237.748 25.52C238.132 26.1813 238.324 26.9333 238.324 27.776C238.324 28.6187 238.132 29.3707 237.748 30.032C237.374 30.6933 236.857 31.216 236.196 31.6C235.534 31.9733 234.788 32.16 233.956 32.16ZM233.956 30.416C234.414 30.416 234.82 30.2987 235.172 30.064C235.534 29.8293 235.817 29.5147 236.02 29.12C236.233 28.7253 236.334 28.2773 236.324 27.776C236.334 27.264 236.233 26.8107 236.02 26.416C235.817 26.0213 235.534 25.712 235.172 25.488C234.82 25.2533 234.414 25.136 233.956 25.136C233.497 25.136 233.081 25.2533 232.708 25.488C232.345 25.712 232.062 26.0267 231.86 26.432C231.657 26.8267 231.556 27.2747 231.556 27.776C231.556 28.2773 231.657 28.7253 231.86 29.12C232.062 29.5147 232.345 29.8293 232.708 30.064C233.081 30.2987 233.497 30.416 233.956 30.416ZM241.994 32L238.442 23.568H240.586L242.986 29.872L242.57 29.984L245.098 23.568H247.194L243.466 32H241.994ZM251.791 32.16C250.906 32.16 250.122 31.9733 249.439 31.6C248.767 31.2267 248.239 30.72 247.855 30.08C247.482 29.4293 247.295 28.688 247.295 27.856C247.295 27.1947 247.402 26.592 247.615 26.048C247.828 25.504 248.122 25.0347 248.495 24.64C248.879 24.2347 249.332 23.9253 249.855 23.712C250.388 23.488 250.97 23.376 251.599 23.376C252.154 23.376 252.671 23.4827 253.151 23.696C253.631 23.9093 254.047 24.2027 254.399 24.576C254.751 24.9387 255.018 25.376 255.199 25.888C255.391 26.3893 255.482 26.9387 255.471 27.536L255.455 28.224H248.623L248.255 26.88H253.807L253.551 27.152V26.8C253.519 26.4693 253.412 26.1813 253.231 25.936C253.05 25.68 252.815 25.4827 252.527 25.344C252.25 25.1947 251.94 25.12 251.599 25.12C251.076 25.12 250.634 25.2213 250.271 25.424C249.919 25.6267 249.652 25.92 249.471 26.304C249.29 26.6773 249.199 27.1467 249.199 27.712C249.199 28.256 249.311 28.7307 249.535 29.136C249.77 29.5413 250.095 29.856 250.511 30.08C250.938 30.2933 251.434 30.4 251.999 30.4C252.394 30.4 252.756 30.336 253.087 30.208C253.418 30.08 253.775 29.8507 254.159 29.52L255.135 30.88C254.847 31.1467 254.516 31.376 254.143 31.568C253.78 31.7493 253.396 31.8933 252.991 32C252.586 32.1067 252.186 32.16 251.791 32.16ZM256.654 32V23.568H258.59L258.622 26.256L258.35 25.648C258.467 25.2213 258.67 24.8373 258.958 24.496C259.246 24.1547 259.577 23.888 259.95 23.696C260.334 23.4933 260.734 23.392 261.15 23.392C261.331 23.392 261.502 23.408 261.662 23.44C261.833 23.472 261.971 23.5093 262.078 23.552L261.55 25.712C261.433 25.648 261.289 25.5947 261.118 25.552C260.947 25.5093 260.777 25.488 260.606 25.488C260.339 25.488 260.083 25.5413 259.838 25.648C259.603 25.744 259.395 25.8827 259.214 26.064C259.033 26.2453 258.889 26.4587 258.782 26.704C258.686 26.9387 258.638 27.2053 258.638 27.504V32H256.654Z" fill="#359740"/>
</svg>
