<svg width="187" height="72" viewBox="0 0 187 72" fill="none" xmlns="http://www.w3.org/2000/svg">
<rect x="1" y="1" width="185" height="70" rx="7" stroke="#EFEFEF" stroke-width="2"/>
<path d="M34.9328 25.8065C34.7487 25.6384 34.4927 25.5584 34.2367 25.6144L33.9967 25.6624C33.6047 25.6224 33.2046 25.5984 32.7966 25.5984C31.5565 25.5984 30.3564 25.8065 29.2444 26.1825L28.7083 24.5504C28.6123 24.2544 28.3483 24.0383 28.0363 24.0063C27.7243 23.9663 27.4202 24.1183 27.2602 24.3904L25.8121 26.8625C24.8281 26.1105 23.62 25.5984 22.3959 25.5984C21.9559 25.5984 21.5958 25.9585 21.5958 26.3985C21.5958 26.8385 21.9559 27.1986 22.3959 27.1986C23.324 27.1986 24.252 27.6466 24.9881 28.2466L20.3557 31.3348C20.0597 31.5269 19.9317 31.8949 20.0357 32.2309C20.1317 32.5669 20.4438 32.7989 20.7958 32.7989H22.3479C21.8679 34.039 21.5958 35.3911 21.5958 36.7992C21.5958 36.9992 21.6118 37.1912 21.6278 37.3913C21.5798 37.5593 21.5958 37.7353 21.6518 37.8873C22.1959 43.5597 26.9802 48 32.7966 48C38.981 48 43.9974 42.9837 43.9974 36.7992C43.9974 31.3428 40.1011 26.8065 34.9328 25.8065ZM32.7966 46.3999C27.8683 46.3999 23.796 42.6636 23.2599 37.8793L24.02 37.1432C24.1 39.2794 24.9481 41.3995 26.5802 43.0237C28.2923 44.7358 30.5485 45.5998 32.8046 45.5998C35.0608 45.5998 37.3089 44.7438 39.029 43.0237C39.3411 42.7116 39.3411 42.2076 39.029 41.8956C38.717 41.5836 38.213 41.5836 37.901 41.8956C35.0928 44.7038 30.5245 44.7038 27.7163 41.8956C25.9801 40.1595 25.3161 37.7433 25.7321 35.4871L26.0841 35.1431L28.9723 38.8874C29.1164 39.0874 29.3564 39.1994 29.5964 39.1994C29.6844 39.1994 29.7724 39.1834 29.8524 39.1594C30.1804 39.0474 30.3964 38.7434 30.3964 38.3993V32.7029L36.0928 31.9909C36.4529 31.9429 36.7409 31.6629 36.7889 31.3028C36.8369 30.9428 36.6369 30.5988 36.3008 30.4548L32.9246 29.0707L34.5727 27.3666C39.021 28.2066 42.3973 32.1109 42.3973 36.7992C42.3973 42.0956 38.093 46.3999 32.7966 46.3999ZM26.0361 29.4627C26.0521 29.4547 26.0521 29.4467 26.0601 29.4387C26.2762 29.7827 26.3962 30.1188 26.3962 30.3988C26.3962 30.8388 26.7562 31.1988 27.1962 31.1988C27.6363 31.1988 27.9963 30.8388 27.9963 30.3988C27.9963 29.6387 27.6122 28.7827 26.9882 28.0066L27.7323 26.7345L28.0763 27.7906C28.2043 28.1746 28.5963 28.4066 28.9963 28.3266L32.0126 27.7026L30.9405 28.8147C30.7565 29.0067 30.6765 29.2787 30.7325 29.5347C30.7885 29.7907 30.9645 30.0068 31.2125 30.1108L32.8606 30.7828L29.4924 31.2068C29.1004 31.2548 28.7963 31.5989 28.7963 31.9989V36.0472L26.7962 33.447C26.6602 33.263 26.4442 33.151 26.2202 33.135C26.2042 33.135 26.1801 33.135 26.1641 33.135C25.9561 33.135 25.7561 33.215 25.6041 33.359L23.988 34.9271L24.7641 32.2069C24.8361 31.9749 24.7881 31.7189 24.636 31.5189C24.484 31.3188 24.244 31.1988 23.996 31.1988H23.436L26.0361 29.4627Z" fill="#359740"/>
<path d="M68.5841 41.5L64.6641 31.7H66.3861L68.7241 37.65C68.8361 37.9393 68.9341 38.2007 69.0181 38.434C69.1115 38.6673 69.1908 38.882 69.2561 39.078C69.3215 39.2647 69.3821 39.442 69.4381 39.61C69.4941 39.778 69.5501 39.946 69.6061 40.114L69.2421 40.128C69.3075 39.904 69.3775 39.6707 69.4521 39.428C69.5268 39.1853 69.6108 38.9193 69.7041 38.63C69.8068 38.3407 69.9281 38.014 70.0681 37.65L72.2381 31.7H74.0021L70.0541 41.5H68.5841ZM75.7079 41.5V31.7H81.8819V33.156H77.2199V40.044H81.8819V41.5H75.7079ZM76.3939 37.202V35.746H81.1119V37.202H76.3939ZM88.6895 41.64C87.9802 41.64 87.3175 41.514 86.7015 41.262C86.0855 41.0007 85.5442 40.6413 85.0775 40.184C84.6109 39.7267 84.2469 39.1947 83.9855 38.588C83.7335 37.972 83.6075 37.3093 83.6075 36.6C83.6075 35.9 83.7335 35.2467 83.9855 34.64C84.2469 34.0333 84.6062 33.506 85.0635 33.058C85.5302 32.6007 86.0715 32.246 86.6875 31.994C87.3035 31.742 87.9662 31.616 88.6755 31.616C89.1702 31.616 89.6509 31.686 90.1175 31.826C90.5935 31.966 91.0229 32.162 91.4055 32.414C91.7882 32.666 92.1009 32.9553 92.3435 33.282L91.3635 34.304C91.0835 34.0333 90.7942 33.8093 90.4955 33.632C90.2062 33.4547 89.9075 33.3193 89.5995 33.226C89.2915 33.1327 88.9835 33.086 88.6755 33.086C88.1715 33.086 87.7049 33.1747 87.2755 33.352C86.8555 33.5293 86.4822 33.7767 86.1555 34.094C85.8382 34.4113 85.5909 34.7847 85.4135 35.214C85.2362 35.634 85.1475 36.096 85.1475 36.6C85.1475 37.0853 85.2409 37.5473 85.4275 37.986C85.6142 38.4153 85.8709 38.7933 86.1975 39.12C86.5335 39.4467 86.9162 39.7033 87.3455 39.89C87.7842 40.0767 88.2462 40.17 88.7315 40.17C89.0955 40.17 89.4409 40.1187 89.7675 40.016C90.0942 39.904 90.3835 39.75 90.6355 39.554C90.8875 39.358 91.0835 39.134 91.2235 38.882C91.3635 38.6207 91.4335 38.3453 91.4335 38.056V37.776L91.6435 37.972H88.6475V36.474H92.9875C93.0062 36.5767 93.0202 36.6793 93.0295 36.782C93.0389 36.8753 93.0435 36.9687 93.0435 37.062C93.0529 37.146 93.0575 37.23 93.0575 37.314C93.0575 37.958 92.9455 38.546 92.7215 39.078C92.4975 39.6007 92.1849 40.0533 91.7835 40.436C91.3915 40.8187 90.9295 41.1173 90.3975 41.332C89.8749 41.5373 89.3055 41.64 88.6895 41.64ZM95.0263 41.5V31.7H101.2V33.156H96.5383V40.044H101.2V41.5H95.0263ZM95.7123 37.202V35.746H100.43V37.202H95.7123ZM105.488 41.5V33.156H102.744V31.7H109.828V33.156H107V41.5H105.488ZM109.973 41.5L113.767 31.7H115.307L119.073 41.5H117.463L115.223 35.592C115.195 35.5267 115.139 35.368 115.055 35.116C114.98 34.864 114.892 34.584 114.789 34.276C114.686 33.968 114.593 33.688 114.509 33.436C114.425 33.1747 114.369 33.0067 114.341 32.932L114.663 32.918C114.607 33.0767 114.537 33.2773 114.453 33.52C114.378 33.7627 114.294 34.0193 114.201 34.29C114.117 34.5607 114.033 34.8173 113.949 35.06C113.865 35.2933 113.795 35.4893 113.739 35.648L111.513 41.5H109.973ZM111.653 39.064L112.213 37.608H116.665L117.309 39.064H111.653ZM120.798 41.5V31.7H124.886C125.511 31.7 126.038 31.7933 126.468 31.98C126.897 32.1667 127.219 32.4467 127.434 32.82C127.658 33.184 127.77 33.632 127.77 34.164C127.77 34.696 127.62 35.1487 127.322 35.522C127.032 35.8953 126.626 36.152 126.104 36.292V36.012C126.542 36.1053 126.925 36.2733 127.252 36.516C127.578 36.7493 127.83 37.0433 128.008 37.398C128.194 37.7527 128.288 38.1587 128.288 38.616C128.288 39.0827 128.213 39.498 128.064 39.862C127.924 40.2167 127.709 40.5153 127.42 40.758C127.14 41.0007 126.799 41.1873 126.398 41.318C125.996 41.4393 125.539 41.5 125.026 41.5H120.798ZM122.31 40.044H124.942C125.324 40.044 125.646 39.988 125.908 39.876C126.178 39.764 126.384 39.6007 126.524 39.386C126.673 39.162 126.748 38.896 126.748 38.588C126.748 38.2987 126.668 38.0513 126.51 37.846C126.36 37.6407 126.146 37.4867 125.866 37.384C125.586 37.272 125.254 37.216 124.872 37.216H122.31V40.044ZM122.31 35.76H124.802C125.082 35.76 125.329 35.704 125.544 35.592C125.768 35.48 125.94 35.326 126.062 35.13C126.192 34.934 126.258 34.71 126.258 34.458C126.258 34.038 126.118 33.716 125.838 33.492C125.558 33.268 125.156 33.156 124.634 33.156H122.31V35.76ZM130.327 41.5V31.7H131.839V40.044H136.431V41.5H130.327ZM138.708 41.5V31.7H144.882V33.156H140.22V40.044H144.882V41.5H138.708ZM139.394 37.202V35.746H144.112V37.202H139.394ZM150.332 41.64C149.8 41.64 149.305 41.57 148.848 41.43C148.4 41.29 147.989 41.08 147.616 40.8C147.252 40.5107 146.925 40.156 146.636 39.736L147.672 38.546C148.129 39.1993 148.568 39.652 148.988 39.904C149.408 40.156 149.907 40.282 150.486 40.282C150.84 40.282 151.162 40.226 151.452 40.114C151.741 40.002 151.97 39.848 152.138 39.652C152.306 39.456 152.39 39.232 152.39 38.98C152.39 38.812 152.362 38.6533 152.306 38.504C152.25 38.3547 152.161 38.2193 152.04 38.098C151.928 37.9767 151.778 37.8647 151.592 37.762C151.414 37.6593 151.204 37.5707 150.962 37.496C150.719 37.412 150.439 37.342 150.122 37.286C149.618 37.1833 149.179 37.048 148.806 36.88C148.432 36.712 148.12 36.502 147.868 36.25C147.616 35.998 147.429 35.7133 147.308 35.396C147.186 35.0693 147.126 34.7053 147.126 34.304C147.126 33.912 147.21 33.548 147.378 33.212C147.555 32.876 147.793 32.5867 148.092 32.344C148.4 32.092 148.759 31.9007 149.17 31.77C149.58 31.63 150.024 31.56 150.5 31.56C151.004 31.56 151.466 31.6253 151.886 31.756C152.306 31.8867 152.679 32.0827 153.006 32.344C153.332 32.596 153.603 32.9087 153.818 33.282L152.754 34.332C152.567 34.024 152.357 33.7673 152.124 33.562C151.89 33.3473 151.634 33.1887 151.354 33.086C151.074 32.974 150.775 32.918 150.458 32.918C150.094 32.918 149.776 32.974 149.506 33.086C149.235 33.198 149.02 33.3567 148.862 33.562C148.712 33.758 148.638 33.9913 148.638 34.262C148.638 34.458 148.675 34.64 148.75 34.808C148.824 34.9667 148.936 35.1113 149.086 35.242C149.244 35.3633 149.454 35.4753 149.716 35.578C149.977 35.6713 150.29 35.7553 150.654 35.83C151.167 35.942 151.624 36.0867 152.026 36.264C152.427 36.432 152.768 36.6327 153.048 36.866C153.328 37.0993 153.538 37.3607 153.678 37.65C153.827 37.9393 153.902 38.252 153.902 38.588C153.902 39.2133 153.757 39.7547 153.468 40.212C153.178 40.6693 152.768 41.024 152.236 41.276C151.704 41.5187 151.069 41.64 150.332 41.64Z" fill="#1F2533"/>
</svg>
